<svg width="36" height="34" viewBox="0 0 36 34" fill="none" xmlns="http://www.w3.org/2000/svg">
<path fill-rule="evenodd" clip-rule="evenodd" d="M0.801025 17.0523C0.801025 7.8618 8.60571 0.411865 18.2339 0.411865C27.862 0.411865 35.6667 7.8618 35.6667 17.0523C35.6667 26.2428 27.862 33.6928 18.2339 33.6928C8.60571 33.6928 0.801025 26.2428 0.801025 17.0523ZM23.4637 12.0602L17.0258 13.2899C16.3513 13.4189 15.7319 13.7355 15.2455 14.1998C14.7591 14.6641 14.4275 15.2553 14.2923 15.8991L13.004 22.0445L19.442 20.8147C20.1168 20.686 20.7365 20.3695 21.2233 19.9052C21.71 19.4409 22.0419 18.8495 22.1772 18.2055L23.4637 12.0602Z" fill="#FF414D"/>
</svg>
