<svg width="27" height="27" viewBox="0 0 27 27" fill="none" xmlns="http://www.w3.org/2000/svg">
<circle cx="13.5832" cy="13.25" r="12.2917" stroke="white" stroke-width="1.25"/>
<path d="M17.2871 5.94935L14.2853 5.94935C14.2785 5.9493 14.2716 5.94959 14.2648 5.95023C11.2342 5.95948 10.8384 8.00856 10.8368 9.7995C10.8326 9.81646 10.8304 9.83383 10.8304 9.85126V11.1085H8.75628C8.69595 11.1085 8.63809 11.1317 8.59543 11.173C8.55277 11.2143 8.52881 11.2704 8.52881 11.3288L8.52881 14.4294C8.52881 14.4878 8.55277 14.5438 8.59543 14.5851C8.63809 14.6264 8.69595 14.6496 8.75628 14.6496H10.8304L10.8304 21.4537C10.8304 21.5121 10.8544 21.5682 10.897 21.6095C10.9397 21.6508 10.9976 21.674 11.0579 21.674H14.0849C14.1452 21.674 14.2031 21.6508 14.2457 21.6095C14.2884 21.5682 14.3124 21.5121 14.3124 21.4537L14.3124 14.6499H17.2868C17.3472 14.6499 17.405 14.6267 17.4477 14.5854C17.4904 14.544 17.5143 14.488 17.5143 14.4296V11.329C17.5143 11.2706 17.4904 11.2146 17.4477 11.1732C17.405 11.1319 17.3472 11.1087 17.2868 11.1087L14.0849 11.1087V9.44202L17.2868 9.44202C17.3472 9.44202 17.405 9.41881 17.4477 9.37751C17.4904 9.3362 17.5143 9.28018 17.5143 9.22176V6.16961C17.5143 6.14069 17.5085 6.11205 17.4971 6.08533C17.4857 6.05861 17.4689 6.03433 17.4478 6.01387C17.4267 5.99342 17.4017 5.97719 17.3741 5.96612C17.3465 5.95504 17.3169 5.94935 17.2871 5.94935Z" fill="white"/>
</svg>
