<svg width="370" height="235" viewBox="0 0 370 235" fill="none" xmlns="http://www.w3.org/2000/svg">
<rect x="1.6665" y="44.4994" width="366.667" height="190" rx="25" fill="#011016"/>
<path d="M219.287 140.783C218.065 140.783 217.12 140.34 216.452 139.453C216.382 139.368 216.347 139.282 216.347 139.197C216.347 139.08 216.401 138.979 216.51 138.893C216.58 138.831 216.665 138.8 216.767 138.8C216.914 138.8 217.035 138.862 217.128 138.987C217.393 139.352 217.692 139.617 218.027 139.78C218.369 139.943 218.789 140.025 219.287 140.025C219.847 140.025 220.278 139.862 220.582 139.535C220.893 139.201 221.048 138.734 221.048 138.135V132.85C221.048 132.702 221.083 132.589 221.153 132.512C221.231 132.426 221.34 132.383 221.48 132.383C221.62 132.383 221.729 132.426 221.807 132.512C221.892 132.589 221.935 132.702 221.935 132.85V138.088C221.935 138.617 221.822 139.088 221.597 139.5C221.371 139.904 221.056 140.219 220.652 140.445C220.255 140.671 219.8 140.783 219.287 140.783ZM226.528 140.783C225.851 140.783 225.271 140.647 224.789 140.375C224.307 140.103 223.941 139.741 223.693 139.29C223.451 138.831 223.331 138.337 223.331 137.808C223.331 137.279 223.451 136.789 223.693 136.338C223.941 135.879 224.307 135.514 224.789 135.242C225.271 134.969 225.851 134.833 226.528 134.833C227.204 134.833 227.78 134.969 228.254 135.242C228.736 135.514 229.098 135.879 229.339 136.338C229.588 136.789 229.713 137.279 229.713 137.808C229.713 138.337 229.588 138.831 229.339 139.29C229.098 139.741 228.736 140.103 228.254 140.375C227.78 140.647 227.204 140.783 226.528 140.783ZM226.528 140.048C227.228 140.048 227.788 139.85 228.208 139.453C228.635 139.057 228.849 138.508 228.849 137.808C228.849 137.108 228.635 136.56 228.208 136.163C227.788 135.767 227.228 135.568 226.528 135.568C225.82 135.568 225.252 135.767 224.824 136.163C224.404 136.56 224.194 137.108 224.194 137.808C224.194 138.508 224.404 139.057 224.824 139.453C225.252 139.85 225.82 140.048 226.528 140.048ZM231.681 133.597C231.51 133.597 231.362 133.542 231.238 133.433C231.121 133.317 231.063 133.177 231.063 133.013C231.063 132.85 231.121 132.71 231.238 132.593C231.362 132.477 231.51 132.418 231.681 132.418C231.852 132.418 232 132.481 232.124 132.605C232.257 132.722 232.323 132.858 232.323 133.013C232.323 133.169 232.257 133.305 232.124 133.422C232 133.538 231.852 133.597 231.681 133.597ZM231.681 140.783C231.549 140.783 231.444 140.744 231.366 140.667C231.296 140.581 231.261 140.464 231.261 140.317V135.3C231.261 135.152 231.296 135.039 231.366 134.962C231.444 134.876 231.549 134.833 231.681 134.833C231.821 134.833 231.926 134.876 231.996 134.962C232.074 135.039 232.113 135.152 232.113 135.3V140.317C232.113 140.464 232.074 140.581 231.996 140.667C231.926 140.744 231.821 140.783 231.681 140.783ZM234.399 140.783C234.267 140.783 234.162 140.744 234.084 140.667C234.014 140.581 233.979 140.464 233.979 140.317V135.3C233.979 135.152 234.014 135.039 234.084 134.962C234.154 134.876 234.259 134.833 234.399 134.833C234.532 134.833 234.633 134.876 234.703 134.962C234.78 135.039 234.819 135.152 234.819 135.3V135.988C235.107 135.607 235.453 135.319 235.858 135.125C236.27 134.931 236.721 134.833 237.211 134.833C237.95 134.833 238.518 135.039 238.914 135.452C239.319 135.864 239.521 136.455 239.521 137.225V140.317C239.521 140.464 239.482 140.581 239.404 140.667C239.327 140.744 239.222 140.783 239.089 140.783C238.949 140.783 238.844 140.744 238.774 140.667C238.704 140.581 238.669 140.464 238.669 140.317V137.225C238.669 136.121 238.148 135.568 237.106 135.568C236.422 135.568 235.869 135.771 235.449 136.175C235.037 136.579 234.831 137.116 234.831 137.785V140.317C234.831 140.457 234.792 140.569 234.714 140.655C234.644 140.741 234.539 140.783 234.399 140.783ZM248.188 140.783C247.403 140.783 246.695 140.612 246.065 140.27C245.435 139.92 244.937 139.426 244.572 138.788C244.214 138.151 244.035 137.416 244.035 136.583C244.035 135.743 244.214 135.008 244.572 134.378C244.937 133.741 245.435 133.251 246.065 132.908C246.695 132.558 247.403 132.383 248.188 132.383C248.974 132.383 249.682 132.558 250.312 132.908C250.942 133.251 251.435 133.741 251.793 134.378C252.159 135.008 252.342 135.743 252.342 136.583C252.342 137.416 252.159 138.151 251.793 138.788C251.435 139.426 250.942 139.92 250.312 140.27C249.682 140.612 248.974 140.783 248.188 140.783ZM248.188 140.037C248.818 140.037 249.378 139.901 249.868 139.628C250.366 139.356 250.755 138.963 251.035 138.45C251.323 137.929 251.467 137.307 251.467 136.583C251.467 135.852 251.319 135.226 251.023 134.705C250.735 134.184 250.339 133.791 249.833 133.527C249.335 133.262 248.779 133.13 248.165 133.13C247.543 133.13 246.983 133.266 246.485 133.538C245.995 133.811 245.61 134.207 245.33 134.728C245.05 135.249 244.91 135.868 244.91 136.583C244.91 137.307 245.05 137.929 245.33 138.45C245.618 138.963 246.007 139.356 246.497 139.628C246.994 139.901 247.558 140.037 248.188 140.037ZM256.443 140.783C256.07 140.783 255.751 140.671 255.486 140.445C255.23 140.219 255.016 139.869 254.845 139.395L253.398 135.393C253.382 135.331 253.375 135.288 253.375 135.265C253.375 135.179 253.402 135.102 253.456 135.032C253.511 134.954 253.581 134.899 253.666 134.868C253.705 134.853 253.763 134.845 253.841 134.845C253.935 134.845 254.012 134.868 254.075 134.915C254.145 134.962 254.195 135.028 254.226 135.113L255.696 139.162C255.821 139.496 255.937 139.729 256.046 139.862C256.155 139.994 256.287 140.06 256.443 140.06C256.598 140.06 256.731 139.998 256.84 139.873C256.956 139.741 257.073 139.512 257.19 139.185L258.66 135.113C258.73 134.934 258.858 134.845 259.045 134.845C259.185 134.845 259.297 134.888 259.383 134.973C259.476 135.051 259.523 135.148 259.523 135.265C259.523 135.288 259.515 135.331 259.5 135.393L258.03 139.418C257.858 139.893 257.645 140.239 257.388 140.457C257.131 140.674 256.816 140.783 256.443 140.783ZM263.178 140.783C262.167 140.783 261.386 140.523 260.833 140.002C260.281 139.481 260.005 138.742 260.005 137.785C260.005 136.867 260.285 136.148 260.845 135.627C261.405 135.098 262.171 134.833 263.143 134.833C263.742 134.833 264.275 134.931 264.742 135.125C265.208 135.312 265.57 135.58 265.827 135.93C266.091 136.272 266.223 136.665 266.223 137.108C266.223 137.435 266.13 137.688 265.943 137.867C265.765 138.046 265.516 138.135 265.197 138.135H260.88C260.88 138.734 261.082 139.204 261.487 139.547C261.891 139.881 262.455 140.048 263.178 140.048C263.622 140.048 264.003 140.002 264.322 139.908C264.641 139.807 264.94 139.648 265.22 139.43C265.368 139.306 265.488 139.243 265.582 139.243C265.652 139.243 265.718 139.274 265.78 139.337C265.889 139.43 265.943 139.527 265.943 139.628C265.943 139.706 265.897 139.792 265.803 139.885C265.485 140.188 265.111 140.414 264.683 140.562C264.256 140.709 263.754 140.783 263.178 140.783ZM264.94 137.447C265.08 137.447 265.185 137.419 265.255 137.365C265.325 137.303 265.36 137.194 265.36 137.038C265.36 136.758 265.267 136.506 265.08 136.28C264.893 136.054 264.629 135.879 264.287 135.755C263.952 135.631 263.571 135.568 263.143 135.568C262.451 135.568 261.903 135.739 261.498 136.082C261.102 136.416 260.903 136.871 260.903 137.447H264.94ZM267.975 140.783C267.843 140.783 267.738 140.744 267.66 140.667C267.59 140.581 267.555 140.464 267.555 140.317V135.3C267.555 135.152 267.59 135.039 267.66 134.962C267.73 134.876 267.835 134.833 267.975 134.833C268.107 134.833 268.208 134.876 268.278 134.962C268.356 135.039 268.395 135.152 268.395 135.3V136C268.924 135.3 269.655 134.95 270.588 134.95H270.88C271.028 134.95 271.145 134.985 271.23 135.055C271.316 135.117 271.358 135.207 271.358 135.323C271.358 135.44 271.316 135.529 271.23 135.592C271.145 135.654 271.028 135.685 270.88 135.685H270.553C269.892 135.685 269.367 135.876 268.978 136.257C268.597 136.63 268.407 137.139 268.407 137.785V140.317C268.407 140.457 268.368 140.569 268.29 140.655C268.22 140.741 268.115 140.783 267.975 140.783ZM278.653 140.783C278.03 140.783 277.451 140.667 276.914 140.433C276.378 140.2 275.93 139.866 275.573 139.43C275.495 139.329 275.456 139.232 275.456 139.138C275.456 139.014 275.514 138.913 275.631 138.835C275.709 138.781 275.79 138.753 275.876 138.753C276.016 138.753 276.133 138.819 276.226 138.952C276.483 139.294 276.825 139.562 277.253 139.757C277.688 139.943 278.155 140.037 278.653 140.037C279.368 140.037 279.928 139.897 280.333 139.617C280.745 139.329 280.951 138.932 280.951 138.427C280.951 137.882 280.807 137.47 280.519 137.19C280.239 136.902 279.823 136.758 279.271 136.758H277.964C277.653 136.758 277.498 136.638 277.498 136.397C277.498 136.148 277.653 136.023 277.964 136.023H279.271C279.707 136.023 280.06 135.899 280.333 135.65C280.613 135.393 280.753 135.063 280.753 134.658C280.753 134.168 280.574 133.791 280.216 133.527C279.866 133.262 279.36 133.13 278.699 133.13C278.24 133.13 277.817 133.212 277.428 133.375C277.047 133.538 276.72 133.776 276.448 134.087C276.347 134.203 276.234 134.262 276.109 134.262C276.032 134.262 275.942 134.231 275.841 134.168C275.732 134.098 275.678 134.001 275.678 133.877C275.678 133.768 275.72 133.671 275.806 133.585C276.172 133.196 276.599 132.901 277.089 132.698C277.587 132.488 278.124 132.383 278.699 132.383C279.617 132.383 280.333 132.589 280.846 133.002C281.367 133.414 281.628 133.966 281.628 134.658C281.628 135.008 281.523 135.331 281.313 135.627C281.11 135.914 280.815 136.156 280.426 136.35V136.373C280.9 136.56 281.25 136.824 281.476 137.167C281.709 137.501 281.826 137.921 281.826 138.427C281.826 138.901 281.694 139.317 281.429 139.675C281.165 140.033 280.792 140.309 280.309 140.503C279.835 140.69 279.283 140.783 278.653 140.783ZM286.347 140.783C285.655 140.783 285.056 140.616 284.551 140.282C284.045 139.947 283.656 139.465 283.384 138.835C283.12 138.205 282.987 137.454 282.987 136.583C282.987 135.712 283.12 134.962 283.384 134.332C283.656 133.702 284.045 133.219 284.551 132.885C285.056 132.551 285.655 132.383 286.347 132.383C287.04 132.383 287.639 132.551 288.144 132.885C288.65 133.219 289.035 133.702 289.299 134.332C289.571 134.962 289.707 135.712 289.707 136.583C289.707 137.454 289.571 138.205 289.299 138.835C289.035 139.465 288.65 139.947 288.144 140.282C287.639 140.616 287.04 140.783 286.347 140.783ZM286.347 140.037C287.141 140.037 287.751 139.737 288.179 139.138C288.615 138.532 288.832 137.68 288.832 136.583C288.832 135.479 288.615 134.627 288.179 134.028C287.751 133.429 287.141 133.13 286.347 133.13C285.554 133.13 284.94 133.429 284.504 134.028C284.076 134.627 283.862 135.479 283.862 136.583C283.862 137.68 284.076 138.532 284.504 139.138C284.94 139.737 285.554 140.037 286.347 140.037ZM297.241 140.772C297.031 140.772 296.891 140.655 296.821 140.422C296.572 139.488 296.195 138.707 295.689 138.077C295.184 137.439 294.484 136.863 293.589 136.35L292.119 137.552V140.317C292.119 140.464 292.081 140.581 292.003 140.667C291.925 140.744 291.816 140.783 291.676 140.783C291.544 140.783 291.439 140.744 291.361 140.667C291.283 140.581 291.244 140.464 291.244 140.317V132.85C291.244 132.702 291.283 132.589 291.361 132.512C291.439 132.426 291.544 132.383 291.676 132.383C291.816 132.383 291.925 132.426 292.003 132.512C292.081 132.589 292.119 132.702 292.119 132.85V136.548L296.774 132.535C296.86 132.465 296.946 132.43 297.031 132.43C297.14 132.43 297.237 132.473 297.323 132.558C297.401 132.636 297.439 132.729 297.439 132.838C297.439 132.939 297.393 133.033 297.299 133.118L294.184 135.837C295.196 136.436 295.981 137.097 296.541 137.82C297.109 138.543 297.471 139.364 297.626 140.282L297.638 140.375C297.638 140.499 297.599 140.597 297.521 140.667C297.451 140.737 297.358 140.772 297.241 140.772ZM305.632 140.783C304.939 140.783 304.337 140.647 303.823 140.375C303.318 140.103 302.929 139.71 302.657 139.197C302.384 138.683 302.248 138.073 302.248 137.365V132.85C302.248 132.702 302.287 132.589 302.365 132.512C302.443 132.426 302.548 132.383 302.68 132.383C302.82 132.383 302.929 132.426 303.007 132.512C303.084 132.589 303.123 132.702 303.123 132.85V137.4C303.123 138.24 303.345 138.889 303.788 139.348C304.232 139.807 304.854 140.037 305.655 140.037C306.464 140.037 307.094 139.807 307.545 139.348C308.004 138.882 308.233 138.232 308.233 137.4V132.85C308.233 132.702 308.272 132.589 308.35 132.512C308.436 132.426 308.544 132.383 308.677 132.383C308.817 132.383 308.922 132.426 308.992 132.512C309.069 132.589 309.108 132.702 309.108 132.85V137.365C309.108 138.049 308.968 138.652 308.688 139.173C308.408 139.687 308.004 140.083 307.475 140.363C306.954 140.643 306.339 140.783 305.632 140.783ZM313.289 140.783C312.744 140.783 312.231 140.682 311.749 140.48C311.266 140.27 310.885 139.982 310.605 139.617C310.551 139.539 310.524 139.461 310.524 139.383C310.524 139.306 310.543 139.239 310.582 139.185C310.629 139.123 310.687 139.076 310.757 139.045C310.819 139.022 310.87 139.01 310.909 139.01C310.979 139.01 311.037 139.029 311.084 139.068C311.138 139.099 311.2 139.154 311.27 139.232C311.776 139.768 312.449 140.037 313.289 140.037C313.693 140.037 314.02 139.967 314.269 139.827C314.517 139.687 314.642 139.492 314.642 139.243C314.642 139.064 314.591 138.921 314.49 138.812C314.397 138.695 314.234 138.59 314 138.497C313.775 138.396 313.401 138.256 312.88 138.077C312.375 137.906 311.978 137.742 311.69 137.587C311.402 137.431 311.189 137.256 311.049 137.062C310.909 136.859 310.839 136.614 310.839 136.327C310.839 135.876 311.033 135.514 311.422 135.242C311.819 134.969 312.344 134.833 312.997 134.833C313.479 134.833 313.926 134.919 314.339 135.09C314.751 135.253 315.062 135.475 315.272 135.755C315.334 135.841 315.365 135.922 315.365 136C315.365 136.117 315.303 136.21 315.179 136.28C315.101 136.327 315.023 136.35 314.945 136.35C314.813 136.35 314.689 136.292 314.572 136.175C314.37 135.973 314.148 135.825 313.907 135.732C313.666 135.631 313.359 135.58 312.985 135.58C312.573 135.58 312.258 135.646 312.04 135.778C311.822 135.911 311.714 136.097 311.714 136.338C311.714 136.517 311.756 136.661 311.842 136.77C311.935 136.871 312.079 136.964 312.274 137.05C312.476 137.128 312.826 137.248 313.324 137.412C313.884 137.598 314.315 137.777 314.619 137.948C314.93 138.112 315.151 138.294 315.284 138.497C315.424 138.699 315.494 138.948 315.494 139.243C315.494 139.71 315.287 140.083 314.875 140.363C314.471 140.643 313.942 140.783 313.289 140.783ZM319.689 140.783C318.678 140.783 317.896 140.523 317.344 140.002C316.792 139.481 316.516 138.742 316.516 137.785C316.516 136.867 316.796 136.148 317.356 135.627C317.916 135.098 318.682 134.833 319.654 134.833C320.253 134.833 320.786 134.931 321.252 135.125C321.719 135.312 322.081 135.58 322.337 135.93C322.602 136.272 322.734 136.665 322.734 137.108C322.734 137.435 322.641 137.688 322.454 137.867C322.275 138.046 322.026 138.135 321.707 138.135H317.391C317.391 138.734 317.593 139.204 317.997 139.547C318.402 139.881 318.966 140.048 319.689 140.048C320.132 140.048 320.513 140.002 320.832 139.908C321.151 139.807 321.451 139.648 321.731 139.43C321.878 139.306 321.999 139.243 322.092 139.243C322.162 139.243 322.228 139.274 322.291 139.337C322.399 139.43 322.454 139.527 322.454 139.628C322.454 139.706 322.407 139.792 322.314 139.885C321.995 140.188 321.622 140.414 321.194 140.562C320.766 140.709 320.264 140.783 319.689 140.783ZM321.451 137.447C321.591 137.447 321.696 137.419 321.766 137.365C321.836 137.303 321.871 137.194 321.871 137.038C321.871 136.758 321.777 136.506 321.591 136.28C321.404 136.054 321.139 135.879 320.797 135.755C320.463 135.631 320.082 135.568 319.654 135.568C318.962 135.568 318.413 135.739 318.009 136.082C317.612 136.416 317.414 136.871 317.414 137.447H321.451ZM324.486 140.783C324.353 140.783 324.248 140.744 324.171 140.667C324.101 140.581 324.066 140.464 324.066 140.317V135.3C324.066 135.152 324.101 135.039 324.171 134.962C324.241 134.876 324.346 134.833 324.486 134.833C324.618 134.833 324.719 134.876 324.789 134.962C324.867 135.039 324.906 135.152 324.906 135.3V136C325.434 135.3 326.166 134.95 327.099 134.95H327.391C327.538 134.95 327.655 134.985 327.741 135.055C327.826 135.117 327.869 135.207 327.869 135.323C327.869 135.44 327.826 135.529 327.741 135.592C327.655 135.654 327.538 135.685 327.391 135.685H327.064C326.403 135.685 325.878 135.876 325.489 136.257C325.108 136.63 324.917 137.139 324.917 137.785V140.317C324.917 140.457 324.878 140.569 324.801 140.655C324.731 140.741 324.626 140.783 324.486 140.783ZM331.278 140.783C330.734 140.783 330.221 140.682 329.738 140.48C329.256 140.27 328.875 139.982 328.595 139.617C328.541 139.539 328.513 139.461 328.513 139.383C328.513 139.306 328.533 139.239 328.572 139.185C328.618 139.123 328.677 139.076 328.747 139.045C328.809 139.022 328.86 139.01 328.898 139.01C328.968 139.01 329.027 139.029 329.073 139.068C329.128 139.099 329.19 139.154 329.26 139.232C329.766 139.768 330.438 140.037 331.278 140.037C331.683 140.037 332.01 139.967 332.258 139.827C332.507 139.687 332.632 139.492 332.632 139.243C332.632 139.064 332.581 138.921 332.48 138.812C332.387 138.695 332.223 138.59 331.99 138.497C331.765 138.396 331.391 138.256 330.87 138.077C330.365 137.906 329.968 137.742 329.68 137.587C329.392 137.431 329.178 137.256 329.038 137.062C328.898 136.859 328.828 136.614 328.828 136.327C328.828 135.876 329.023 135.514 329.412 135.242C329.808 134.969 330.333 134.833 330.987 134.833C331.469 134.833 331.916 134.919 332.328 135.09C332.741 135.253 333.052 135.475 333.262 135.755C333.324 135.841 333.355 135.922 333.355 136C333.355 136.117 333.293 136.21 333.168 136.28C333.091 136.327 333.013 136.35 332.935 136.35C332.803 136.35 332.678 136.292 332.562 136.175C332.36 135.973 332.138 135.825 331.897 135.732C331.656 135.631 331.348 135.58 330.975 135.58C330.563 135.58 330.248 135.646 330.03 135.778C329.812 135.911 329.703 136.097 329.703 136.338C329.703 136.517 329.746 136.661 329.832 136.77C329.925 136.871 330.069 136.964 330.263 137.05C330.466 137.128 330.816 137.248 331.313 137.412C331.873 137.598 332.305 137.777 332.608 137.948C332.92 138.112 333.141 138.294 333.273 138.497C333.413 138.699 333.483 138.948 333.483 139.243C333.483 139.71 333.277 140.083 332.865 140.363C332.461 140.643 331.932 140.783 331.278 140.783ZM218.995 155.783C218.66 155.783 218.392 155.674 218.19 155.457C217.988 155.239 217.844 154.901 217.758 154.442L216.487 147.897C216.471 147.819 216.463 147.764 216.463 147.733C216.463 147.5 216.595 147.383 216.86 147.383C217.023 147.383 217.14 147.418 217.21 147.488C217.28 147.558 217.327 147.663 217.35 147.803L218.587 154.465C218.625 154.683 218.676 154.834 218.738 154.92C218.8 154.998 218.89 155.037 219.007 155.037C219.131 155.037 219.224 154.994 219.287 154.908C219.349 154.815 219.395 154.671 219.427 154.477L220.348 148.468C220.403 148.111 220.515 147.842 220.687 147.663C220.865 147.477 221.091 147.383 221.363 147.383C221.923 147.383 222.258 147.745 222.367 148.468L223.288 154.477C223.319 154.679 223.366 154.823 223.428 154.908C223.49 154.994 223.584 155.037 223.708 155.037C223.817 155.037 223.903 154.994 223.965 154.908C224.035 154.823 224.089 154.675 224.128 154.465L225.365 147.803C225.388 147.656 225.435 147.551 225.505 147.488C225.583 147.418 225.699 147.383 225.855 147.383C226.119 147.383 226.252 147.5 226.252 147.733C226.252 147.764 226.244 147.819 226.228 147.897L224.957 154.442C224.871 154.877 224.731 155.212 224.537 155.445C224.35 155.671 224.078 155.783 223.72 155.783C223.385 155.783 223.121 155.674 222.927 155.457C222.74 155.239 222.612 154.904 222.542 154.453L221.632 148.562C221.608 148.406 221.573 148.297 221.527 148.235C221.488 148.165 221.433 148.13 221.363 148.13C221.285 148.13 221.223 148.165 221.177 148.235C221.138 148.297 221.107 148.406 221.083 148.562L220.173 154.453C220.103 154.904 219.971 155.239 219.777 155.457C219.59 155.674 219.329 155.783 218.995 155.783ZM228.133 155.783C228.001 155.783 227.896 155.744 227.818 155.667C227.748 155.581 227.713 155.464 227.713 155.317V147.278C227.713 147.131 227.748 147.018 227.818 146.94C227.896 146.854 228.001 146.812 228.133 146.812C228.265 146.812 228.37 146.854 228.448 146.94C228.526 147.018 228.565 147.131 228.565 147.278V150.988C228.852 150.607 229.199 150.319 229.603 150.125C230.015 149.931 230.462 149.833 230.945 149.833C231.684 149.833 232.251 150.039 232.648 150.452C233.052 150.864 233.255 151.455 233.255 152.225V155.317C233.255 155.464 233.216 155.581 233.138 155.667C233.06 155.744 232.955 155.783 232.823 155.783C232.683 155.783 232.578 155.744 232.508 155.667C232.438 155.581 232.403 155.464 232.403 155.317V152.225C232.403 151.121 231.882 150.568 230.84 150.568C230.155 150.568 229.603 150.771 229.183 151.175C228.771 151.579 228.565 152.116 228.565 152.785V155.317C228.565 155.457 228.526 155.569 228.448 155.655C228.378 155.741 228.273 155.783 228.133 155.783ZM237.568 155.783C236.891 155.783 236.312 155.647 235.829 155.375C235.347 155.103 234.982 154.741 234.733 154.29C234.492 153.831 234.371 153.337 234.371 152.808C234.371 152.279 234.492 151.789 234.733 151.338C234.982 150.879 235.347 150.514 235.829 150.242C236.312 149.969 236.891 149.833 237.568 149.833C238.244 149.833 238.82 149.969 239.294 150.242C239.777 150.514 240.138 150.879 240.379 151.338C240.628 151.789 240.753 152.279 240.753 152.808C240.753 153.337 240.628 153.831 240.379 154.29C240.138 154.741 239.777 155.103 239.294 155.375C238.82 155.647 238.244 155.783 237.568 155.783ZM237.568 155.048C238.268 155.048 238.828 154.85 239.248 154.453C239.675 154.057 239.889 153.508 239.889 152.808C239.889 152.108 239.675 151.56 239.248 151.163C238.828 150.767 238.268 150.568 237.568 150.568C236.86 150.568 236.292 150.767 235.864 151.163C235.444 151.56 235.234 152.108 235.234 152.808C235.234 153.508 235.444 154.057 235.864 154.453C236.292 154.85 236.86 155.048 237.568 155.048ZM248.468 155.783C248.328 155.783 248.219 155.744 248.141 155.667C248.071 155.581 248.036 155.464 248.036 155.317V148.223H245.364C245.224 148.223 245.112 148.196 245.026 148.142C244.948 148.079 244.909 147.99 244.909 147.873C244.909 147.624 245.061 147.5 245.364 147.5H251.594C251.898 147.5 252.049 147.624 252.049 147.873C252.049 147.982 252.011 148.068 251.933 148.13C251.855 148.192 251.742 148.223 251.594 148.223H248.923V155.317C248.923 155.464 248.88 155.581 248.794 155.667C248.717 155.744 248.608 155.783 248.468 155.783ZM252.401 155.783C252.268 155.783 252.163 155.744 252.086 155.667C252.016 155.581 251.981 155.464 251.981 155.317V150.3C251.981 150.152 252.016 150.039 252.086 149.962C252.156 149.876 252.261 149.833 252.401 149.833C252.533 149.833 252.634 149.876 252.704 149.962C252.782 150.039 252.821 150.152 252.821 150.3V151C253.349 150.3 254.081 149.95 255.014 149.95H255.306C255.453 149.95 255.57 149.985 255.656 150.055C255.741 150.117 255.784 150.207 255.784 150.323C255.784 150.44 255.741 150.529 255.656 150.592C255.57 150.654 255.453 150.685 255.306 150.685H254.979C254.318 150.685 253.793 150.876 253.404 151.257C253.023 151.63 252.832 152.139 252.832 152.785V155.317C252.832 155.457 252.793 155.569 252.716 155.655C252.646 155.741 252.541 155.783 252.401 155.783ZM259.1 155.783C258.338 155.783 257.739 155.566 257.304 155.13C256.876 154.694 256.662 154.088 256.662 153.31V150.3C256.662 150.152 256.701 150.039 256.779 149.962C256.856 149.876 256.961 149.833 257.094 149.833C257.226 149.833 257.327 149.876 257.397 149.962C257.475 150.039 257.514 150.152 257.514 150.3V153.31C257.514 153.862 257.661 154.29 257.957 154.593C258.252 154.897 258.665 155.048 259.194 155.048C259.614 155.048 259.987 154.955 260.314 154.768C260.64 154.582 260.893 154.321 261.072 153.987C261.259 153.652 261.352 153.267 261.352 152.832V150.3C261.352 150.152 261.387 150.039 261.457 149.962C261.535 149.876 261.644 149.833 261.784 149.833C261.916 149.833 262.017 149.876 262.087 149.962C262.165 150.039 262.204 150.152 262.204 150.3V155.317C262.204 155.464 262.165 155.581 262.087 155.667C262.017 155.744 261.916 155.783 261.784 155.783C261.644 155.783 261.535 155.741 261.457 155.655C261.387 155.569 261.352 155.457 261.352 155.317V154.628C261.064 155.002 260.73 155.289 260.349 155.492C259.967 155.686 259.551 155.783 259.1 155.783ZM266.326 155.783C265.781 155.783 265.268 155.682 264.786 155.48C264.303 155.27 263.922 154.982 263.642 154.617C263.588 154.539 263.561 154.461 263.561 154.383C263.561 154.306 263.58 154.239 263.619 154.185C263.666 154.123 263.724 154.076 263.794 154.045C263.856 154.022 263.907 154.01 263.946 154.01C264.016 154.01 264.074 154.029 264.121 154.068C264.175 154.099 264.237 154.154 264.307 154.232C264.813 154.768 265.486 155.037 266.326 155.037C266.73 155.037 267.057 154.967 267.306 154.827C267.555 154.687 267.679 154.492 267.679 154.243C267.679 154.064 267.628 153.921 267.527 153.812C267.434 153.695 267.271 153.59 267.037 153.497C266.812 153.396 266.438 153.256 265.917 153.077C265.412 152.906 265.015 152.742 264.727 152.587C264.44 152.431 264.226 152.256 264.086 152.062C263.946 151.859 263.876 151.614 263.876 151.327C263.876 150.876 264.07 150.514 264.459 150.242C264.856 149.969 265.381 149.833 266.034 149.833C266.516 149.833 266.963 149.919 267.376 150.09C267.788 150.253 268.099 150.475 268.309 150.755C268.371 150.841 268.402 150.922 268.402 151C268.402 151.117 268.34 151.21 268.216 151.28C268.138 151.327 268.06 151.35 267.982 151.35C267.85 151.35 267.726 151.292 267.609 151.175C267.407 150.973 267.185 150.825 266.944 150.732C266.703 150.631 266.396 150.58 266.022 150.58C265.61 150.58 265.295 150.646 265.077 150.778C264.86 150.911 264.751 151.097 264.751 151.338C264.751 151.517 264.793 151.661 264.879 151.77C264.972 151.871 265.116 151.964 265.311 152.05C265.513 152.128 265.863 152.248 266.361 152.412C266.921 152.598 267.352 152.777 267.656 152.948C267.967 153.112 268.188 153.294 268.321 153.497C268.461 153.699 268.531 153.948 268.531 154.243C268.531 154.71 268.325 155.083 267.912 155.363C267.508 155.643 266.979 155.783 266.326 155.783ZM273.764 154.512C273.85 154.582 273.893 154.663 273.893 154.757C273.893 154.834 273.858 154.928 273.788 155.037C273.624 155.262 273.399 155.445 273.111 155.585C272.823 155.717 272.528 155.783 272.224 155.783C271.711 155.783 271.307 155.632 271.011 155.328C270.715 155.025 270.568 154.609 270.568 154.08V150.662H269.938C269.627 150.662 269.471 150.541 269.471 150.3C269.471 150.191 269.51 150.106 269.588 150.043C269.673 149.981 269.79 149.95 269.938 149.95H270.568V147.955C270.568 147.807 270.603 147.694 270.673 147.617C270.75 147.531 270.859 147.488 270.999 147.488C271.132 147.488 271.233 147.531 271.303 147.617C271.38 147.694 271.419 147.807 271.419 147.955V149.95H273.006C273.146 149.95 273.255 149.981 273.333 150.043C273.418 150.098 273.461 150.183 273.461 150.3C273.461 150.541 273.309 150.662 273.006 150.662H271.419V154.15C271.419 154.749 271.699 155.048 272.259 155.048C272.438 155.048 272.602 155.013 272.749 154.943C272.897 154.873 273.045 154.761 273.193 154.605C273.309 154.481 273.422 154.418 273.531 154.418C273.601 154.418 273.679 154.449 273.764 154.512ZM282.231 155.783C281.446 155.783 280.738 155.612 280.108 155.27C279.478 154.92 278.98 154.426 278.614 153.788C278.257 153.151 278.078 152.416 278.078 151.583C278.078 150.743 278.257 150.008 278.614 149.378C278.98 148.741 279.478 148.251 280.108 147.908C280.738 147.558 281.446 147.383 282.231 147.383C283.017 147.383 283.724 147.558 284.354 147.908C284.984 148.251 285.478 148.741 285.836 149.378C286.202 150.008 286.384 150.743 286.384 151.583C286.384 152.416 286.202 153.151 285.836 153.788C285.478 154.426 284.984 154.92 284.354 155.27C283.724 155.612 283.017 155.783 282.231 155.783ZM282.231 155.037C282.861 155.037 283.421 154.901 283.911 154.628C284.409 154.356 284.798 153.963 285.078 153.45C285.366 152.929 285.509 152.307 285.509 151.583C285.509 150.852 285.362 150.226 285.066 149.705C284.778 149.184 284.382 148.791 283.876 148.527C283.378 148.262 282.822 148.13 282.208 148.13C281.586 148.13 281.026 148.266 280.528 148.538C280.038 148.811 279.653 149.207 279.373 149.728C279.093 150.249 278.953 150.868 278.953 151.583C278.953 152.307 279.093 152.929 279.373 153.45C279.661 153.963 280.049 154.356 280.539 154.628C281.037 154.901 281.601 155.037 282.231 155.037ZM290.226 155.783C289.464 155.783 288.865 155.566 288.43 155.13C288.002 154.694 287.788 154.088 287.788 153.31V150.3C287.788 150.152 287.827 150.039 287.905 149.962C287.983 149.876 288.088 149.833 288.22 149.833C288.352 149.833 288.453 149.876 288.523 149.962C288.601 150.039 288.64 150.152 288.64 150.3V153.31C288.64 153.862 288.788 154.29 289.083 154.593C289.379 154.897 289.791 155.048 290.32 155.048C290.74 155.048 291.113 154.955 291.44 154.768C291.766 154.582 292.019 154.321 292.198 153.987C292.385 153.652 292.478 153.267 292.478 152.832V150.3C292.478 150.152 292.513 150.039 292.583 149.962C292.661 149.876 292.77 149.833 292.91 149.833C293.042 149.833 293.143 149.876 293.213 149.962C293.291 150.039 293.33 150.152 293.33 150.3V155.317C293.33 155.464 293.291 155.581 293.213 155.667C293.143 155.744 293.042 155.783 292.91 155.783C292.77 155.783 292.661 155.741 292.583 155.655C292.513 155.569 292.478 155.457 292.478 155.317V154.628C292.19 155.002 291.856 155.289 291.475 155.492C291.094 155.686 290.678 155.783 290.226 155.783ZM295.399 155.783C295.266 155.783 295.161 155.744 295.084 155.667C295.014 155.581 294.979 155.464 294.979 155.317V150.3C294.979 150.152 295.014 150.039 295.084 149.962C295.154 149.876 295.259 149.833 295.399 149.833C295.531 149.833 295.632 149.876 295.702 149.962C295.78 150.039 295.819 150.152 295.819 150.3V151C296.348 150.3 297.079 149.95 298.012 149.95H298.304C298.451 149.95 298.568 149.985 298.654 150.055C298.739 150.117 298.782 150.207 298.782 150.323C298.782 150.44 298.739 150.529 298.654 150.592C298.568 150.654 298.451 150.685 298.304 150.685H297.977C297.316 150.685 296.791 150.876 296.402 151.257C296.021 151.63 295.83 152.139 295.83 152.785V155.317C295.83 155.457 295.791 155.569 295.714 155.655C295.644 155.741 295.539 155.783 295.399 155.783ZM303.673 155.783C303.541 155.783 303.436 155.744 303.358 155.667C303.28 155.581 303.241 155.464 303.241 155.317V148.9C303.241 148.464 303.37 148.122 303.626 147.873C303.891 147.624 304.256 147.5 304.723 147.5H306.706C308.923 147.5 310.031 148.429 310.031 150.288C310.031 151.144 309.747 151.805 309.18 152.272C308.62 152.731 307.811 152.96 306.753 152.96H304.116V155.317C304.116 155.464 304.077 155.581 304 155.667C303.922 155.744 303.813 155.783 303.673 155.783ZM306.753 152.225C307.507 152.225 308.091 152.077 308.503 151.782C308.923 151.486 309.133 150.988 309.133 150.288C309.133 149.557 308.931 149.032 308.526 148.713C308.122 148.387 307.535 148.223 306.765 148.223H304.735C304.548 148.223 304.396 148.286 304.28 148.41C304.171 148.534 304.116 148.698 304.116 148.9V152.225H306.753ZM311.919 155.783C311.787 155.783 311.682 155.744 311.604 155.667C311.534 155.581 311.499 155.464 311.499 155.317V150.3C311.499 150.152 311.534 150.039 311.604 149.962C311.674 149.876 311.779 149.833 311.919 149.833C312.051 149.833 312.152 149.876 312.222 149.962C312.3 150.039 312.339 150.152 312.339 150.3V151C312.868 150.3 313.599 149.95 314.532 149.95H314.824C314.972 149.95 315.088 149.985 315.174 150.055C315.259 150.117 315.302 150.207 315.302 150.323C315.302 150.44 315.259 150.529 315.174 150.592C315.088 150.654 314.972 150.685 314.824 150.685H314.497C313.836 150.685 313.311 150.876 312.922 151.257C312.541 151.63 312.35 152.139 312.35 152.785V155.317C312.35 155.457 312.312 155.569 312.234 155.655C312.164 155.741 312.059 155.783 311.919 155.783ZM318.904 155.783C318.227 155.783 317.648 155.647 317.166 155.375C316.683 155.103 316.318 154.741 316.069 154.29C315.828 153.831 315.707 153.337 315.707 152.808C315.707 152.279 315.828 151.789 316.069 151.338C316.318 150.879 316.683 150.514 317.166 150.242C317.648 149.969 318.227 149.833 318.904 149.833C319.581 149.833 320.156 149.969 320.631 150.242C321.113 150.514 321.474 150.879 321.716 151.338C321.964 151.789 322.089 152.279 322.089 152.808C322.089 153.337 321.964 153.831 321.716 154.29C321.474 154.741 321.113 155.103 320.631 155.375C320.156 155.647 319.581 155.783 318.904 155.783ZM318.904 155.048C319.604 155.048 320.164 154.85 320.584 154.453C321.012 154.057 321.226 153.508 321.226 152.808C321.226 152.108 321.012 151.56 320.584 151.163C320.164 150.767 319.604 150.568 318.904 150.568C318.196 150.568 317.628 150.767 317.201 151.163C316.781 151.56 316.571 152.108 316.571 152.808C316.571 153.508 316.781 154.057 317.201 154.453C317.628 154.85 318.196 155.048 318.904 155.048ZM324.251 148.562C324.079 148.562 323.932 148.503 323.807 148.387C323.683 148.27 323.621 148.134 323.621 147.978C323.621 147.815 323.683 147.675 323.807 147.558C323.932 147.442 324.079 147.383 324.251 147.383C324.422 147.383 324.569 147.442 324.694 147.558C324.826 147.675 324.892 147.815 324.892 147.978C324.892 148.134 324.826 148.27 324.694 148.387C324.569 148.503 324.422 148.562 324.251 148.562ZM322.652 159.073C322.528 159.073 322.427 159.038 322.349 158.968C322.271 158.898 322.232 158.805 322.232 158.688C322.232 158.579 322.271 158.49 322.349 158.42C322.427 158.358 322.528 158.327 322.652 158.327C322.971 158.327 323.212 158.288 323.376 158.21C323.539 158.14 323.652 158.012 323.714 157.825C323.784 157.646 323.819 157.378 323.819 157.02L323.831 150.3C323.831 150.152 323.866 150.039 323.936 149.962C324.006 149.876 324.111 149.833 324.251 149.833C324.391 149.833 324.496 149.876 324.566 149.962C324.643 150.039 324.682 150.152 324.682 150.3L324.671 157.02C324.671 157.697 324.519 158.206 324.216 158.548C323.912 158.898 323.391 159.073 322.652 159.073ZM329.419 155.783C328.408 155.783 327.626 155.523 327.074 155.002C326.522 154.481 326.245 153.742 326.245 152.785C326.245 151.867 326.525 151.148 327.085 150.627C327.645 150.098 328.412 149.833 329.384 149.833C329.983 149.833 330.515 149.931 330.982 150.125C331.449 150.312 331.81 150.58 332.067 150.93C332.332 151.272 332.464 151.665 332.464 152.108C332.464 152.435 332.37 152.688 332.184 152.867C332.005 153.046 331.756 153.135 331.437 153.135H327.12C327.12 153.734 327.323 154.204 327.727 154.547C328.132 154.881 328.695 155.048 329.419 155.048C329.862 155.048 330.243 155.002 330.562 154.908C330.881 154.807 331.18 154.648 331.46 154.43C331.608 154.306 331.729 154.243 331.822 154.243C331.892 154.243 331.958 154.274 332.02 154.337C332.129 154.43 332.184 154.527 332.184 154.628C332.184 154.706 332.137 154.792 332.044 154.885C331.725 155.188 331.352 155.414 330.924 155.562C330.496 155.709 329.994 155.783 329.419 155.783ZM331.18 152.447C331.32 152.447 331.425 152.419 331.495 152.365C331.565 152.303 331.6 152.194 331.6 152.038C331.6 151.758 331.507 151.506 331.32 151.28C331.134 151.054 330.869 150.879 330.527 150.755C330.193 150.631 329.812 150.568 329.384 150.568C328.692 150.568 328.143 150.739 327.739 151.082C327.342 151.416 327.144 151.871 327.144 152.447H331.18ZM336.619 155.783C335.996 155.783 335.448 155.663 334.974 155.422C334.499 155.173 334.134 154.823 333.877 154.372C333.62 153.921 333.492 153.396 333.492 152.797C333.492 152.206 333.62 151.688 333.877 151.245C334.134 150.794 334.499 150.448 334.974 150.207C335.448 149.958 335.996 149.833 336.619 149.833C337.202 149.833 337.708 149.915 338.135 150.078C338.563 150.242 338.901 150.483 339.15 150.802C339.213 150.887 339.244 150.969 339.244 151.047C339.244 151.163 339.185 151.268 339.069 151.362C339.014 151.408 338.944 151.432 338.859 151.432C338.726 151.432 338.602 151.373 338.485 151.257C338.073 150.798 337.451 150.568 336.619 150.568C335.895 150.568 335.335 150.763 334.939 151.152C334.55 151.533 334.355 152.081 334.355 152.797C334.355 153.504 334.554 154.057 334.95 154.453C335.347 154.85 335.903 155.048 336.619 155.048C337.015 155.048 337.381 154.99 337.715 154.873C338.05 154.749 338.326 154.574 338.544 154.348C338.676 154.216 338.8 154.15 338.917 154.15C338.987 154.15 339.065 154.181 339.15 154.243C339.259 154.337 339.314 154.438 339.314 154.547C339.314 154.648 339.271 154.733 339.185 154.803C338.804 155.146 338.408 155.394 337.995 155.55C337.583 155.706 337.124 155.783 336.619 155.783ZM344.243 154.512C344.328 154.582 344.371 154.663 344.371 154.757C344.371 154.834 344.336 154.928 344.266 155.037C344.103 155.262 343.877 155.445 343.59 155.585C343.302 155.717 343.006 155.783 342.703 155.783C342.19 155.783 341.785 155.632 341.49 155.328C341.194 155.025 341.046 154.609 341.046 154.08V150.662H340.416C340.105 150.662 339.95 150.541 339.95 150.3C339.95 150.191 339.988 150.106 340.066 150.043C340.152 149.981 340.268 149.95 340.416 149.95H341.046V147.955C341.046 147.807 341.081 147.694 341.151 147.617C341.229 147.531 341.338 147.488 341.478 147.488C341.61 147.488 341.711 147.531 341.781 147.617C341.859 147.694 341.898 147.807 341.898 147.955V149.95H343.485C343.625 149.95 343.733 149.981 343.811 150.043C343.897 150.098 343.94 150.183 343.94 150.3C343.94 150.541 343.788 150.662 343.485 150.662H341.898V154.15C341.898 154.749 342.178 155.048 342.738 155.048C342.917 155.048 343.08 155.013 343.228 154.943C343.376 154.873 343.523 154.761 343.671 154.605C343.788 154.481 343.901 154.418 344.01 154.418C344.08 154.418 344.157 154.449 344.243 154.512Z" fill="#A9A9A9"/>
<path d="M48.3733 153.193C45.7333 153.193 43.3999 152.859 41.3733 152.193C39.3733 151.499 37.8133 150.539 36.6933 149.313C35.5733 148.059 35.0133 146.606 35.0133 144.953H40.3733C40.4533 146.873 41.1733 148.353 42.5333 149.393C43.9199 150.433 45.8399 150.953 48.2933 150.953C50.5066 150.953 52.1466 150.459 53.2133 149.473C54.2799 148.459 54.8133 146.913 54.8133 144.833C54.8133 142.753 54.2933 141.286 53.2533 140.433C52.2133 139.553 50.4399 139.113 47.9333 139.113C45.5066 139.113 43.3866 139.339 41.5733 139.793V136.633C42.8266 136.846 44.5199 136.953 46.6533 136.953C48.8666 136.953 50.5599 136.499 51.7333 135.593C52.9333 134.659 53.5333 133.326 53.5333 131.593C53.5333 128.339 51.6399 126.713 47.8533 126.713C45.6133 126.713 43.7866 127.259 42.3733 128.353C40.9866 129.419 40.2533 130.873 40.1733 132.713H34.8133C34.8133 131.139 35.3733 129.726 36.4933 128.473C37.6133 127.219 39.1733 126.246 41.1733 125.553C43.1733 124.833 45.3999 124.473 47.8533 124.473C50.2266 124.473 52.3599 124.793 54.2533 125.433C56.1733 126.046 57.6799 126.899 58.7733 127.993C59.8666 129.086 60.4133 130.299 60.4133 131.633C60.4133 132.939 59.8933 134.139 58.8533 135.233C57.8133 136.326 56.3466 137.179 54.4533 137.793C56.8533 138.326 58.6666 139.179 59.8933 140.353C61.1199 141.526 61.7333 143.006 61.7333 144.793C61.7333 146.473 61.1866 147.953 60.0933 149.233C58.9999 150.486 57.4399 151.459 55.4133 152.153C53.4133 152.846 51.0666 153.193 48.3733 153.193ZM78.2151 153.233C73.6285 153.233 70.1351 152.006 67.7351 149.553C65.3351 147.099 64.1351 143.526 64.1351 138.833C64.1351 134.139 65.3351 130.566 67.7351 128.113C70.1351 125.659 73.6285 124.433 78.2151 124.433C82.8018 124.433 86.2951 125.659 88.6951 128.113C91.0951 130.566 92.2951 134.139 92.2951 138.833C92.2951 143.526 91.0951 147.099 88.6951 149.553C86.3218 152.006 82.8285 153.233 78.2151 153.233ZM78.2151 151.033C80.5618 151.033 82.3351 150.006 83.5351 147.953C84.7618 145.873 85.3751 142.833 85.3751 138.833C85.3751 134.833 84.7618 131.806 83.5351 129.753C82.3351 127.673 80.5618 126.633 78.2151 126.633C75.8951 126.633 74.1218 127.673 72.8951 129.753C71.6951 131.806 71.0951 134.833 71.0951 138.833C71.0951 142.833 71.6951 145.873 72.8951 147.953C74.1218 150.006 75.8951 151.033 78.2151 151.033ZM105.937 140.553L102.857 143.633V152.833H96.057V124.833H102.857V137.753L115.897 124.833H121.737L110.617 135.913L123.017 152.833H114.977L105.937 140.553Z" fill="white"/>
<path d="M138.907 128.573H134.867V132.713H132.747V128.573H128.707V126.653H132.747V122.513H134.867V126.653H138.907V128.573Z" fill="white"/>
<circle cx="185" cy="53.6661" r="53.3333" fill="#FF414D"/>
<g clip-path="url(#clip0_2003_104)">
<path d="M166.29 47.2543C167.045 46.4359 167.942 45.7876 168.983 45.3059C170.026 44.8249 171.188 44.5847 172.471 44.5847C173.753 44.5847 174.924 44.8345 175.982 45.3302C177.041 45.8282 177.955 46.4926 178.724 47.3264C178.901 47.518 179.064 47.7198 179.221 47.9261C179.382 47.4391 179.558 46.9559 179.762 46.4815C180.728 44.2275 182.076 42.2614 183.804 40.5841C183.953 40.439 184.107 40.3005 184.262 40.1613C182.941 39.1006 181.449 38.2255 179.782 37.5375C177.57 36.6241 175.165 36.1666 172.567 36.1666C169.969 36.1666 167.565 36.6241 165.353 37.5375C165.171 37.6119 164.994 37.6929 164.816 37.7732V49.5039C165.195 48.6671 165.682 47.9135 166.29 47.2535" fill="white"/>
<path d="M163.833 38.2527V37.6479C163.833 36.8951 163.222 36.2837 162.469 36.2837H155.962C155.209 36.2837 154.598 36.8944 154.598 37.6479V44.1199C154.598 44.8727 155.209 45.4834 155.962 45.4834H162.469C163.222 45.4834 163.833 44.8727 163.833 44.1199V38.2527Z" fill="white"/>
<path d="M190.032 48.9405H173.022V58.4097H180.067L179.229 59.5345C179.084 59.7283 178.934 59.9176 178.772 60.0966C178.034 60.915 177.136 61.5639 176.078 62.045C175.021 62.526 173.849 62.7661 172.566 62.7661C171.283 62.7661 170.114 62.5186 169.055 62.0214C167.997 61.5249 167.091 60.8597 166.337 60.0251C165.583 59.1913 164.998 58.23 164.582 57.1391C164.259 56.2941 164.065 55.4095 163.992 54.4872H163.949V46.4949H154.481V51.8206C154.419 52.4298 154.386 53.0471 154.386 53.6755V53.7712C154.386 56.1763 154.843 58.437 155.757 60.5533C156.671 62.6703 157.929 64.5148 159.533 66.0846C161.135 67.6565 163.044 68.8985 165.257 69.8119C167.47 70.726 169.874 71.1827 172.471 71.1827C175.069 71.1827 177.474 70.7253 179.686 69.8119C181.346 69.1268 182.844 68.2517 184.178 67.188C184.623 66.833 185.05 66.4581 185.459 66.061C187.095 64.4736 188.369 62.6151 189.282 60.4811C189.462 60.0612 189.618 59.6333 189.758 59.2009C189.766 59.178 189.768 59.1552 189.774 59.1316C189.775 59.1338 189.776 59.1368 189.778 59.1397C189.829 58.9755 189.962 58.5762 190.01 58.4097C190.435 56.8945 190.654 55.3181 190.654 53.6755V53.579C190.654 51.968 190.444 50.4218 190.034 48.9405" fill="white"/>
<path d="M214.243 46.7968C213.329 44.6798 212.07 42.8367 210.467 41.2648C208.863 39.695 206.956 38.4516 204.744 37.5375C202.531 36.6241 200.126 36.1666 197.528 36.1666C194.931 36.1666 192.525 36.6233 190.313 37.5367C188.1 38.4509 186.176 39.7017 184.541 41.2891C182.906 42.8765 181.631 44.7372 180.718 46.869C180.568 47.2174 180.438 47.5703 180.315 47.9261H190.713C190.881 47.6933 191.056 47.4657 191.252 47.2543C192.004 46.4359 192.902 45.7869 193.945 45.3059C194.986 44.8249 196.149 44.5847 197.432 44.5847C198.715 44.5847 199.885 44.8337 200.943 45.3295C202.002 45.8274 202.916 46.4926 203.685 47.3264C204.455 48.1603 205.047 49.1223 205.465 50.2125C205.882 51.3027 206.089 52.457 206.089 53.6761V53.7719C206.089 54.991 205.881 56.146 205.465 57.2355C205.047 58.3264 204.47 59.2803 203.733 60.0973C202.996 60.9156 202.098 61.5639 201.04 62.0449C199.981 62.5266 198.811 62.7668 197.528 62.7668C196.246 62.7668 195.075 62.5185 194.017 62.0213C192.959 61.5248 192.052 60.8597 191.299 60.0251C191.095 59.8004 190.908 59.5647 190.729 59.3209C190.588 59.7451 190.436 60.165 190.259 60.5775C189.292 62.8345 187.943 64.8021 186.212 66.4823C186.008 66.6804 185.799 66.8727 185.585 67.0613C186.944 68.1787 188.486 69.098 190.217 69.8126C192.43 70.7267 194.835 71.1834 197.433 71.1834C200.03 71.1834 202.434 70.726 204.648 69.8126C206.861 68.8984 208.785 67.6484 210.42 66.0617C212.055 64.4743 213.33 62.6143 214.244 60.4818C215.158 58.3492 215.614 56.0812 215.614 53.6761V53.5796C215.614 51.1746 215.157 48.9139 214.244 46.7975" fill="white"/>
</g>
<path d="M0.833252 191.999H369.167V208.666C369.167 222.473 357.974 233.666 344.167 233.666H25.8333C12.0262 233.666 0.833252 222.473 0.833252 208.666V191.999Z" fill="#FF414D"/>
<path d="M38.5083 215.833C37.9249 215.833 37.4666 215.679 37.1333 215.37C36.8083 215.054 36.6458 214.616 36.6458 214.058V207.62C36.6458 207.412 36.7083 207.249 36.8333 207.133C36.9583 207.016 37.1291 206.958 37.3458 206.958C37.5624 206.958 37.7333 207.02 37.8583 207.145C37.9916 207.262 38.0583 207.42 38.0583 207.62V214.07C38.0583 214.27 38.1083 214.429 38.2083 214.545C38.3166 214.662 38.4624 214.72 38.6458 214.72H42.6958C43.1458 214.72 43.3708 214.908 43.3708 215.283C43.3708 215.458 43.3124 215.595 43.1958 215.695C43.0791 215.787 42.9124 215.833 42.6958 215.833H38.5083ZM47.1935 215.958C46.4768 215.958 45.8518 215.833 45.3185 215.583C44.7935 215.324 44.3893 214.958 44.106 214.483C43.831 214.008 43.6935 213.445 43.6935 212.795C43.6935 211.787 43.9935 210.999 44.5935 210.433C45.1935 209.866 46.0268 209.583 47.0935 209.583C47.7518 209.583 48.3352 209.687 48.8435 209.895C49.3518 210.104 49.7477 210.395 50.031 210.77C50.3143 211.137 50.456 211.558 50.456 212.033C50.456 212.416 50.3393 212.712 50.106 212.92C49.8727 213.129 49.5435 213.233 49.1185 213.233H45.0685C45.0685 213.749 45.2518 214.149 45.6185 214.433C45.9852 214.716 46.5102 214.858 47.1935 214.858C47.5852 214.858 47.931 214.816 48.231 214.733C48.531 214.649 48.8102 214.516 49.0685 214.333C49.3102 214.174 49.4935 214.095 49.6185 214.095C49.7268 214.095 49.8393 214.154 49.956 214.27C50.0893 214.395 50.156 214.533 50.156 214.683C50.156 214.841 50.0852 214.974 49.9435 215.083C49.2435 215.666 48.3268 215.958 47.1935 215.958ZM48.6935 212.22C48.8352 212.22 48.9393 212.191 49.006 212.133C49.0727 212.074 49.106 211.974 49.106 211.833C49.106 211.491 48.9227 211.216 48.556 211.008C48.1893 210.791 47.7018 210.683 47.0935 210.683C46.4768 210.683 45.9893 210.824 45.631 211.108C45.2727 211.383 45.0935 211.754 45.0935 212.22H48.6935ZM53.7282 215.958C52.9365 215.958 52.3032 215.77 51.8282 215.395C51.3532 215.02 51.1157 214.52 51.1157 213.895C51.1157 213.279 51.3657 212.787 51.8657 212.42C52.374 212.054 53.0573 211.87 53.9157 211.87C54.749 211.87 55.399 212.062 55.8657 212.445V211.97C55.8657 211.554 55.7323 211.237 55.4657 211.02C55.2073 210.795 54.824 210.683 54.3157 210.683C53.599 210.683 52.9823 210.841 52.4657 211.158C52.2907 211.258 52.1323 211.308 51.9907 211.308C51.8407 211.308 51.7032 211.241 51.5782 211.108C51.4948 211.016 51.4532 210.908 51.4532 210.783C51.4532 210.583 51.5407 210.424 51.7157 210.308C52.0157 210.083 52.3948 209.908 52.8532 209.783C53.3115 209.649 53.7907 209.583 54.2907 209.583C55.2323 209.583 55.9698 209.795 56.5032 210.22C57.0365 210.645 57.3032 211.233 57.3032 211.983V215.333C57.3032 215.524 57.2407 215.679 57.1157 215.795C56.9907 215.904 56.8198 215.958 56.6032 215.958C56.3865 215.958 56.2157 215.904 56.0907 215.795C55.974 215.687 55.9157 215.537 55.9157 215.345V215.108C55.424 215.674 54.6948 215.958 53.7282 215.958ZM54.0282 214.933C54.5948 214.933 55.0448 214.841 55.3782 214.658C55.7115 214.466 55.8782 214.208 55.8782 213.883C55.8782 213.566 55.7157 213.316 55.3907 213.133C55.0657 212.949 54.6198 212.858 54.0532 212.858C53.5615 212.858 53.1782 212.949 52.9032 213.133C52.6365 213.316 52.5032 213.57 52.5032 213.895C52.5032 214.229 52.6323 214.487 52.8907 214.67C53.1573 214.845 53.5365 214.933 54.0282 214.933ZM59.2908 215.958C59.0741 215.958 58.9033 215.899 58.7783 215.783C58.6533 215.666 58.5908 215.504 58.5908 215.295V210.245C58.5908 210.037 58.6491 209.874 58.7658 209.758C58.8908 209.641 59.0574 209.583 59.2658 209.583C59.4824 209.583 59.6491 209.641 59.7658 209.758C59.8908 209.874 59.9533 210.037 59.9533 210.245V210.733C60.5699 209.966 61.3949 209.583 62.4283 209.583C63.2199 209.583 63.8408 209.824 64.2908 210.308C64.7491 210.791 64.9783 211.458 64.9783 212.308V215.295C64.9783 215.504 64.9116 215.666 64.7783 215.783C64.6533 215.899 64.4824 215.958 64.2658 215.958C64.0491 215.958 63.8783 215.899 63.7533 215.783C63.6366 215.666 63.5783 215.504 63.5783 215.295V212.308C63.5783 211.791 63.4533 211.395 63.2033 211.12C62.9533 210.845 62.5991 210.708 62.1408 210.708C61.4741 210.708 60.9491 210.908 60.5658 211.308C60.1824 211.699 59.9908 212.233 59.9908 212.908V215.295C59.9908 215.495 59.9241 215.658 59.7908 215.783C59.6658 215.899 59.4991 215.958 59.2908 215.958ZM70.4262 215.958C70.2096 215.958 70.0346 215.899 69.9012 215.783C69.7762 215.666 69.7137 215.504 69.7137 215.295V209.97C69.7137 209.029 69.9804 208.291 70.5137 207.758C71.0554 207.224 71.7929 206.958 72.7262 206.958C73.2012 206.958 73.6471 207.079 74.0637 207.32C74.4887 207.562 74.8346 207.895 75.1012 208.32C75.3679 207.887 75.7096 207.554 76.1262 207.32C76.5429 207.079 77.0012 206.958 77.5012 206.958C78.4429 206.958 79.1762 207.224 79.7012 207.758C80.2346 208.291 80.5012 209.029 80.5012 209.97V215.295C80.5012 215.495 80.4346 215.658 80.3012 215.783C80.1762 215.899 80.0054 215.958 79.7887 215.958C79.5721 215.958 79.3971 215.899 79.2637 215.783C79.1387 215.666 79.0762 215.504 79.0762 215.295V209.97C79.0762 209.329 78.9471 208.858 78.6887 208.558C78.4387 208.258 78.0262 208.108 77.4512 208.108C76.9262 208.108 76.5221 208.27 76.2387 208.595C75.9554 208.92 75.8137 209.379 75.8137 209.97V215.295C75.8137 215.504 75.7471 215.666 75.6137 215.783C75.4887 215.899 75.3179 215.958 75.1012 215.958C74.8846 215.958 74.7137 215.899 74.5887 215.783C74.4721 215.666 74.4137 215.504 74.4137 215.295V209.97C74.4137 209.387 74.2679 208.933 73.9762 208.608C73.6846 208.274 73.2846 208.108 72.7762 208.108C72.1929 208.108 71.7721 208.258 71.5137 208.558C71.2637 208.858 71.1387 209.329 71.1387 209.97V215.295C71.1387 215.495 71.0721 215.658 70.9387 215.783C70.8137 215.899 70.6429 215.958 70.4262 215.958ZM85.3925 215.958C84.6675 215.958 84.03 215.824 83.48 215.558C82.93 215.283 82.505 214.904 82.205 214.42C81.9134 213.937 81.7675 213.387 81.7675 212.77C81.7675 212.154 81.9134 211.604 82.205 211.12C82.505 210.637 82.93 210.262 83.48 209.995C84.03 209.72 84.6675 209.583 85.3925 209.583C86.1175 209.583 86.755 209.72 87.305 209.995C87.855 210.262 88.2759 210.637 88.5675 211.12C88.8675 211.604 89.0175 212.154 89.0175 212.77C89.0175 213.387 88.8675 213.937 88.5675 214.42C88.2759 214.904 87.855 215.283 87.305 215.558C86.755 215.824 86.1175 215.958 85.3925 215.958ZM85.3925 214.833C86.0675 214.833 86.605 214.649 87.005 214.283C87.405 213.916 87.605 213.412 87.605 212.77C87.605 212.129 87.405 211.624 87.005 211.258C86.605 210.891 86.0675 210.708 85.3925 210.708C84.7092 210.708 84.1675 210.891 83.7675 211.258C83.3759 211.624 83.18 212.129 83.18 212.77C83.18 213.412 83.3759 213.916 83.7675 214.283C84.1675 214.649 84.7092 214.833 85.3925 214.833ZM90.8826 215.958C90.6659 215.958 90.4951 215.899 90.3701 215.783C90.2451 215.666 90.1826 215.504 90.1826 215.295V210.245C90.1826 210.037 90.2409 209.874 90.3576 209.758C90.4826 209.641 90.6492 209.583 90.8576 209.583C91.0742 209.583 91.2409 209.641 91.3576 209.758C91.4826 209.874 91.5451 210.037 91.5451 210.245V210.77C92.0867 210.062 92.7992 209.708 93.6826 209.708H93.9701C94.1951 209.708 94.3701 209.758 94.4951 209.858C94.6284 209.958 94.6951 210.095 94.6951 210.27C94.6951 210.454 94.6284 210.595 94.4951 210.695C94.3701 210.787 94.1951 210.833 93.9701 210.833H93.5701C92.9617 210.833 92.4784 211.02 92.1201 211.395C91.7617 211.762 91.5826 212.266 91.5826 212.908V215.295C91.5826 215.495 91.5159 215.658 91.3826 215.783C91.2576 215.899 91.0909 215.958 90.8826 215.958ZM98.3776 215.958C97.6609 215.958 97.0359 215.833 96.5026 215.583C95.9776 215.324 95.5734 214.958 95.2901 214.483C95.0151 214.008 94.8776 213.445 94.8776 212.795C94.8776 211.787 95.1776 210.999 95.7776 210.433C96.3776 209.866 97.2109 209.583 98.2776 209.583C98.9359 209.583 99.5193 209.687 100.028 209.895C100.536 210.104 100.932 210.395 101.215 210.77C101.498 211.137 101.64 211.558 101.64 212.033C101.64 212.416 101.523 212.712 101.29 212.92C101.057 213.129 100.728 213.233 100.303 213.233H96.2526C96.2526 213.749 96.4359 214.149 96.8026 214.433C97.1693 214.716 97.6943 214.858 98.3776 214.858C98.7693 214.858 99.1151 214.816 99.4151 214.733C99.7151 214.649 99.9943 214.516 100.253 214.333C100.494 214.174 100.678 214.095 100.803 214.095C100.911 214.095 101.023 214.154 101.14 214.27C101.273 214.395 101.34 214.533 101.34 214.683C101.34 214.841 101.269 214.974 101.128 215.083C100.428 215.666 99.5109 215.958 98.3776 215.958ZM99.8776 212.22C100.019 212.22 100.123 212.191 100.19 212.133C100.257 212.074 100.29 211.974 100.29 211.833C100.29 211.491 100.107 211.216 99.7401 211.008C99.3734 210.791 98.8859 210.683 98.2776 210.683C97.6609 210.683 97.1734 210.824 96.8151 211.108C96.4568 211.383 96.2776 211.754 96.2776 212.22H99.8776Z" fill="white"/>
<path d="M342.256 213.422C342.581 213.097 342.581 212.569 342.256 212.244L336.953 206.94C336.627 206.615 336.1 206.615 335.774 206.94C335.449 207.266 335.449 207.793 335.774 208.119L340.488 212.833L335.774 217.547C335.449 217.872 335.449 218.4 335.774 218.725C336.1 219.051 336.627 219.051 336.953 218.725L342.256 213.422ZM325 213.666H341.667V211.999H325V213.666Z" fill="white"/>
<defs>
<clipPath id="clip0_2003_104">
<rect width="61.228" height="35.0168" fill="white" transform="translate(154.386 36.1666)"/>
</clipPath>
</defs>
</svg>
