<svg width="36" height="35" viewBox="0 0 36 35" fill="none" xmlns="http://www.w3.org/2000/svg">
<g clip-path="url(#clip0_2003_215)">
<path d="M18.3335 35.0002C27.9985 35.0002 35.8335 27.1652 35.8335 17.5002C35.8335 7.83526 27.9985 0.000244141 18.3335 0.000244141C8.66851 0.000244141 0.833496 7.83526 0.833496 17.5002C0.833496 27.1652 8.66851 35.0002 18.3335 35.0002Z" fill="#FF414D"/>
<g clip-path="url(#clip1_2003_215)">
<path d="M11.713 15.2363C11.9799 14.9467 12.2974 14.7173 12.666 14.5468C13.0348 14.3766 13.4462 14.2917 13.9 14.2917C14.3538 14.2917 14.7683 14.38 15.1426 14.5555C15.5174 14.7317 15.8407 14.9668 16.1128 15.2619C16.1754 15.3296 16.2332 15.4011 16.2888 15.474C16.3456 15.3017 16.4081 15.1307 16.4804 14.9629C16.8221 14.1652 17.2991 13.4695 17.9106 12.876C17.9633 12.8246 18.0178 12.7756 18.0725 12.7263C17.6051 12.351 17.077 12.0413 16.4874 11.7978C15.7043 11.4746 14.8535 11.3127 13.9342 11.3127C13.0148 11.3127 12.164 11.4746 11.3812 11.7978C11.317 11.8242 11.2542 11.8528 11.1914 11.8813V16.0324C11.3254 15.7363 11.4977 15.4696 11.713 15.2361" fill="white"/>
<path d="M10.8434 12.051V11.837C10.8434 11.5706 10.6273 11.3542 10.3609 11.3542H8.0582C7.79153 11.3542 7.57544 11.5703 7.57544 11.837V14.1272C7.57544 14.3936 7.79153 14.6097 8.0582 14.6097H10.3609C10.6273 14.6097 10.8434 14.3936 10.8434 14.1272V12.051Z" fill="white"/>
<path d="M20.1145 15.8329H14.0951V19.1838H16.5882L16.2915 19.5819C16.2402 19.6504 16.187 19.7174 16.1296 19.7808C15.8685 20.0704 15.5507 20.3 15.1764 20.4702C14.8023 20.6404 14.3879 20.7254 13.9338 20.7254C13.4797 20.7254 13.066 20.6378 12.6912 20.4619C12.3169 20.2862 11.9962 20.0508 11.7296 19.7555C11.4627 19.4604 11.2557 19.1202 11.1084 18.7342C10.994 18.4352 10.9254 18.1221 10.8996 17.7958H10.8845V14.9675H7.53387V16.8522C7.51197 17.0677 7.50024 17.2862 7.50024 17.5085V17.5424C7.50024 18.3935 7.66212 19.1935 7.98561 19.9424C8.30884 20.6915 8.75406 21.3442 9.32153 21.8997C9.88874 22.456 10.5641 22.8955 11.3472 23.2187C12.1302 23.5422 12.981 23.7038 13.9002 23.7038C14.8193 23.7038 15.6704 23.5419 16.4534 23.2187C17.0407 22.9763 17.5706 22.6666 18.0429 22.2902C18.2004 22.1646 18.3513 22.0319 18.496 21.8914C19.0749 21.3296 19.5259 20.672 19.8489 19.9168C19.9127 19.7682 19.9677 19.6168 20.0175 19.4638C20.0204 19.4557 20.0209 19.4476 20.023 19.4393C20.0235 19.4401 20.0238 19.4411 20.0245 19.4422C20.0425 19.384 20.0897 19.2427 20.1064 19.1838C20.2571 18.6476 20.3345 18.0898 20.3345 17.5085V17.4744C20.3345 16.9043 20.2602 16.3571 20.115 15.8329" fill="white"/>
<path d="M28.6819 15.0744C28.3584 14.3253 27.9129 13.6731 27.3457 13.1168C26.7782 12.5613 26.1031 12.1213 25.3203 11.7978C24.5373 11.4746 23.6862 11.3127 22.7671 11.3127C21.8479 11.3127 20.9966 11.4744 20.2138 11.7976C19.4308 12.1211 18.7499 12.5637 18.1712 13.1254C17.5925 13.6872 17.1416 14.3456 16.8184 15.1C16.7655 15.2233 16.7193 15.3481 16.6758 15.474H20.3554C20.4148 15.3917 20.4766 15.3111 20.5459 15.2363C20.8123 14.9467 21.1301 14.7171 21.4989 14.5468C21.8675 14.3766 22.2788 14.2917 22.7329 14.2917C23.187 14.2917 23.6009 14.3798 23.9755 14.5552C24.3501 14.7314 24.6736 14.9668 24.9457 15.2619C25.2181 15.5569 25.4277 15.8974 25.5755 16.2832C25.723 16.6689 25.7965 17.0774 25.7965 17.5088V17.5427C25.7965 17.9741 25.7228 18.3828 25.5755 18.7684C25.4277 19.1544 25.2233 19.492 24.9627 19.7811C24.7017 20.0707 24.384 20.3 24.0097 20.4703C23.6351 20.6407 23.2209 20.7257 22.7671 20.7257C22.3132 20.7257 21.899 20.6379 21.5245 20.4619C21.1501 20.2862 20.8293 20.0508 20.5629 19.7555C20.4907 19.676 20.4242 19.5926 20.3611 19.5063C20.3111 19.6565 20.2574 19.805 20.1948 19.951C19.8525 20.7497 19.3753 21.4459 18.7627 22.0405C18.6905 22.1106 18.6165 22.1787 18.5409 22.2454C19.0215 22.6408 19.5671 22.9662 20.1799 23.219C20.963 23.5425 21.8141 23.7041 22.7332 23.7041C23.6523 23.7041 24.5031 23.5422 25.2864 23.219C26.0695 22.8955 26.7503 22.4532 27.329 21.8917C27.9077 21.3299 28.3586 20.6718 28.6821 19.9171C29.0056 19.1625 29.167 18.3599 29.167 17.5088V17.4747C29.167 16.6236 29.0054 15.8236 28.6821 15.0747" fill="white"/>
</g>
</g>
<defs>
<clipPath id="clip0_2003_215">
<rect width="35" height="35" fill="white" transform="translate(0.833496 0.000244141)"/>
</clipPath>
<clipPath id="clip1_2003_215">
<rect width="21.6667" height="12.3914" fill="white" transform="translate(7.50024 11.3127)"/>
</clipPath>
</defs>
</svg>
