<svg width="62" height="36" viewBox="0 0 62 36" fill="none" xmlns="http://www.w3.org/2000/svg">
<g clip-path="url(#clip0_2003_112)">
<path d="M12.2904 11.2543C13.0447 10.4359 13.9419 9.78764 14.9835 9.30589C16.0258 8.82488 17.1882 8.58474 18.4706 8.58474C19.7531 8.58474 20.9243 8.83445 21.9821 9.3302C23.0414 9.82816 23.9548 10.4926 24.7238 11.3264C24.9006 11.518 25.0641 11.7198 25.221 11.9261C25.3816 11.4391 25.5584 10.9559 25.7625 10.4815C26.7282 8.22748 28.0762 6.26143 29.8043 4.58415C29.9531 4.43903 30.1071 4.30055 30.2617 4.16133C28.941 3.10059 27.4486 2.22548 25.7823 1.53748C23.5695 0.624068 21.1652 0.166626 18.5671 0.166626C15.9691 0.166626 13.5647 0.624068 11.3527 1.53748C11.1715 1.61188 10.9939 1.69291 10.8164 1.7732V13.5039C11.195 12.6671 11.6819 11.9135 12.2904 11.2535" fill="white"/>
<path d="M9.83293 2.25268V1.64791C9.83293 0.895087 9.22227 0.283691 8.46944 0.283691H1.96212C1.20856 0.283691 0.5979 0.894351 0.5979 1.64791V8.11987C0.5979 8.8727 1.20856 9.48336 1.96212 9.48336H8.46944C9.22227 9.48336 9.83293 8.8727 9.83293 8.11987V2.25268Z" fill="white"/>
<path d="M36.0323 12.9405H19.0223V22.4097H26.0673L25.229 23.5345C25.0839 23.7283 24.9337 23.9176 24.7716 24.0966C24.0335 24.915 23.1356 25.5639 22.0778 26.045C21.0207 26.526 19.8495 26.7661 18.5663 26.7661C17.2831 26.7661 16.1141 26.5186 15.0548 26.0214C13.997 25.5249 13.091 24.8597 12.3374 24.0251C11.5831 23.1913 10.9983 22.23 10.5821 21.1391C10.2587 20.2941 10.065 19.4095 9.99203 18.4872H9.9493V10.4949H0.480766V15.8206C0.41889 16.4298 0.385742 17.0471 0.385742 17.6755V17.7712C0.385742 20.1763 0.843184 22.437 1.75733 24.5533C2.67074 26.6703 3.92889 28.5148 5.53252 30.0846C7.13541 31.6565 9.04399 32.8985 11.2568 33.8119C13.4696 34.726 15.874 35.1827 18.4713 35.1827C21.0686 35.1827 23.4737 34.7253 25.6865 33.8119C27.3461 33.1268 28.8436 32.2517 30.1784 31.188C30.6233 30.833 31.0498 30.4581 31.4587 30.061C33.0947 28.4736 34.369 26.6151 35.2817 24.4811C35.4622 24.0612 35.6176 23.6333 35.7583 23.2009C35.7664 23.178 35.7679 23.1552 35.7738 23.1316C35.7753 23.1338 35.776 23.1368 35.7782 23.1397C35.829 22.9755 35.9624 22.5762 36.0095 22.4097C36.4353 20.8945 36.654 19.3181 36.654 17.6755V17.579C36.654 15.968 36.4441 14.4218 36.0338 12.9405" fill="white"/>
<path d="M60.243 10.7968C59.3289 8.67976 58.07 6.83673 56.4671 5.26478C54.8635 3.69504 52.9556 2.45163 50.7435 1.53748C48.5307 0.624068 46.1256 0.166626 43.5283 0.166626C40.931 0.166626 38.5252 0.623331 36.3131 1.53674C34.1003 2.45089 32.1762 3.70167 30.5409 5.28909C28.9056 6.87651 27.6313 8.73722 26.7179 10.869C26.5683 11.2174 26.438 11.5703 26.3149 11.9261H36.7131C36.881 11.6933 37.0556 11.4657 37.2516 11.2543C38.0044 10.4359 38.9023 9.7869 39.9447 9.30589C40.9862 8.82488 42.1486 8.58474 43.4318 8.58474C44.715 8.58474 45.8848 8.83372 46.9433 9.32946C48.0018 9.82742 48.916 10.4926 49.685 11.3264C50.4548 12.1603 51.047 13.1223 51.4647 14.2125C51.8816 15.3027 52.0893 16.457 52.0893 17.6761V17.7719C52.0893 18.991 51.8809 20.146 51.4647 21.2355C51.047 22.3264 50.4695 23.2803 49.7329 24.0973C48.9955 24.9156 48.0976 25.5639 47.0398 26.0449C45.9813 26.5266 44.8108 26.7668 43.5283 26.7668C42.2459 26.7668 41.0754 26.5185 40.0168 26.0213C38.9591 25.5248 38.0523 24.8597 37.2994 24.0251C37.0954 23.8004 36.9076 23.5647 36.7293 23.3209C36.5879 23.7451 36.4361 24.165 36.2593 24.5775C35.2921 26.8345 33.9434 28.8021 32.2123 30.4823C32.0083 30.6804 31.7991 30.8727 31.5855 31.0613C32.9438 32.1787 34.4855 33.098 36.2173 33.8126C38.4302 34.7267 40.8352 35.1834 43.4326 35.1834C46.0299 35.1834 48.4342 34.726 50.6478 33.8126C52.8606 32.8984 54.7846 31.6484 56.4199 30.0617C58.0552 28.4743 59.3296 26.6143 60.2437 24.4818C61.1579 22.3492 61.6139 20.0812 61.6139 17.6761V17.5796C61.6139 15.1746 61.1571 12.9139 60.2437 10.7975" fill="white"/>
</g>
<defs>
<clipPath id="clip0_2003_112">
<rect width="61.228" height="35.0168" fill="white" transform="translate(0.385742 0.166626)"/>
</clipPath>
</defs>
</svg>
