<svg width="27" height="26" viewBox="0 0 27 26" fill="none" xmlns="http://www.w3.org/2000/svg">
<circle cx="13.5832" cy="13.0834" r="12.2917" stroke="white" stroke-width="1.25"/>
<path d="M18.215 6.90621L8.95079 6.90621C8.74701 6.9029 8.54464 6.9406 8.35572 7.01707C8.1668 7.09353 7.99519 7.2072 7.85107 7.35132C7.70696 7.49543 7.59329 7.66705 7.51682 7.85597C7.44036 8.04489 7.40266 8.24725 7.40596 8.45103L7.40596 17.7161C7.40596 18.5874 8.07783 19.2609 8.95079 19.2609H18.2158C18.4196 19.2641 18.6219 19.2263 18.8108 19.1498C18.9996 19.0733 19.1712 18.9596 19.3153 18.8155C19.4594 18.6714 19.5731 18.4999 19.6496 18.311C19.7261 18.1221 19.7638 17.9198 19.7606 17.7161V8.45103C19.7637 8.24725 19.7259 8.04491 19.6493 7.85604C19.5727 7.66716 19.4589 7.4956 19.3148 7.35152C19.1706 7.20744 18.999 7.09378 18.8101 7.01728C18.6212 6.94079 18.4188 6.90301 18.215 6.90621ZM13.5924 10.6567C14.9621 10.6567 16.0725 11.7323 16.0725 13.0603C16.0725 14.3867 14.9621 15.4639 13.5924 15.4639C12.2234 15.4639 11.1131 14.3875 11.1131 13.0603C11.1131 11.7323 12.2234 10.6567 13.5924 10.6567ZM18.215 17.3297C18.215 17.6009 18.0991 17.7161 17.8286 17.7161H9.33562C9.06513 17.7161 8.94921 17.6009 8.94921 17.3297L8.94921 11.9247L9.91128 12.1337C9.80558 12.4771 9.75189 12.8343 9.75199 13.1936C9.75199 15.247 11.4719 16.9125 13.5908 16.9125C15.7105 16.9125 17.4296 15.247 17.4296 13.1936C17.4296 12.8253 17.3736 12.4696 17.2703 12.1337L18.2142 11.9247L18.215 17.3297ZM18.215 10.3815C18.215 10.484 18.1743 10.5822 18.1019 10.6547C18.0294 10.7272 17.9311 10.7679 17.8286 10.7679H16.2838C16.1813 10.7679 16.083 10.7272 16.0106 10.6547C15.9381 10.5822 15.8974 10.484 15.8974 10.3815V8.83665C15.8974 8.73417 15.9381 8.63589 16.0106 8.56342C16.083 8.49096 16.1813 8.45025 16.2838 8.45025H17.8286C17.9311 8.45025 18.0294 8.49096 18.1019 8.56342C18.1743 8.63589 18.215 8.73417 18.215 8.83665V10.3815Z" fill="white"/>
</svg>
