<svg width="40" height="41" viewBox="0 0 40 41" fill="none" xmlns="http://www.w3.org/2000/svg">
<g clip-path="url(#clip0_2003_87)">
<path d="M20 8.47167C17.6758 8.4743 15.4475 9.39875 13.804 11.0422C12.1606 12.6857 11.2361 14.9139 11.2334 17.2382V23.4285C11.2404 25.749 12.167 27.972 13.8103 29.6104C15.4536 31.2488 17.6795 32.1689 20 32.1689C22.3205 32.1689 24.5463 31.2488 26.1896 29.6104C27.8329 27.972 28.7596 25.749 28.7665 23.4285V17.2382C28.7638 14.914 27.8394 12.6857 26.1959 11.0422C24.5525 9.39878 22.3242 8.47432 20 8.47167ZM26.8916 23.4285C26.8854 25.2522 26.1566 26.9991 24.8649 28.2865C23.5732 29.5739 21.8238 30.2968 20 30.2968C18.1763 30.2968 16.4269 29.5739 15.1352 28.2865C13.8434 26.9991 13.1147 25.2522 13.1085 23.4285V17.2382C13.1147 15.4144 13.8434 13.6675 15.1352 12.3801C16.4269 11.0927 18.1763 10.3698 20 10.3698C21.8238 10.3698 23.5732 11.0927 24.8649 12.3801C26.1566 13.6675 26.8854 15.4144 26.8916 17.2382V23.4285ZM20.9375 13.5057V17.056C20.9375 17.3047 20.8387 17.5431 20.6629 17.719C20.4871 17.8948 20.2486 17.9935 20 17.9935C19.7514 17.9935 19.5129 17.8948 19.3371 17.719C19.1613 17.5431 19.0625 17.3047 19.0625 17.056V13.5057C19.0625 13.257 19.1613 13.0186 19.3371 12.8427C19.5129 12.6669 19.7514 12.5682 20 12.5682C20.2486 12.5682 20.4871 12.6669 20.6629 12.8427C20.8387 13.0186 20.9375 13.257 20.9375 13.5057ZM20 0.333313C8.97195 0.333313 0 9.30527 0 20.3333C0 31.3614 8.97195 40.3333 20 40.3333C31.028 40.3333 40 31.3614 40 20.3333C40 9.30527 31.028 0.333313 20 0.333313ZM20 38.4583C10.0059 38.4583 1.875 30.3275 1.875 20.3333C1.875 10.3392 10.0059 2.20831 20 2.20831C29.9941 2.20831 38.125 10.3392 38.125 20.3333C38.125 30.3275 29.9941 38.4583 20 38.4583Z" fill="white"/>
</g>
<defs>
<clipPath id="clip0_2003_87">
<rect width="40" height="40" fill="white" transform="translate(0 0.333313)"/>
</clipPath>
</defs>
</svg>
