<svg width="106" height="23" viewBox="0 0 106 23" fill="none" xmlns="http://www.w3.org/2000/svg">
<g clip-path="url(#clip0_2003_41)">
<g clip-path="url(#clip1_2003_41)">
<path d="M6.97197 7.76786C7.40316 7.30004 7.91603 6.92949 8.51143 6.65411C9.10726 6.37914 9.77172 6.24187 10.5048 6.24187C11.2379 6.24187 11.9074 6.38462 12.5121 6.668C13.1176 6.95265 13.6397 7.33247 14.0793 7.80912C14.1804 7.91861 14.2739 8.03398 14.3636 8.15188C14.4554 7.87355 14.5564 7.59732 14.6731 7.32615C15.2251 6.03765 15.9957 4.91379 16.9835 3.955C17.0686 3.87205 17.1566 3.79288 17.245 3.7133C16.49 3.10695 15.6369 2.60671 14.6844 2.21342C13.4195 1.69128 12.0451 1.42979 10.56 1.42979C9.07483 1.42979 7.70044 1.69128 6.43594 2.21342C6.33235 2.25595 6.23087 2.30227 6.12939 2.34817V9.05383C6.34583 8.57549 6.62416 8.14472 6.97197 7.76744" fill="white"/>
<path d="M5.56714 2.62229V2.27659C5.56714 1.84624 5.21807 1.49675 4.78772 1.49675H1.06792C0.63716 1.49675 0.288086 1.84582 0.288086 2.27659V5.97618C0.288086 6.40652 0.63716 6.75559 1.06792 6.75559H4.78772C5.21807 6.75559 5.56714 6.40652 5.56714 5.97618V2.62229Z" fill="white"/>
<path d="M20.5436 8.73171H10.82V14.1447H14.8472L14.368 14.7877C14.2851 14.8984 14.1992 15.0066 14.1065 15.1089C13.6846 15.5768 13.1713 15.9477 12.5667 16.2227C11.9624 16.4977 11.2929 16.6349 10.5594 16.6349C9.82586 16.6349 9.1576 16.4934 8.55209 16.2092C7.94743 15.9254 7.4295 15.5452 6.99874 15.0681C6.56755 14.5914 6.23322 14.0419 5.99531 13.4183C5.81046 12.9353 5.69971 12.4296 5.65803 11.9024H5.6336V7.33373H0.221067V10.3781C0.185697 10.7264 0.166748 11.0792 0.166748 11.4384V11.4931C0.166748 12.868 0.428237 14.1602 0.950795 15.37C1.47293 16.5802 2.19213 17.6346 3.10882 18.5319C4.02509 19.4305 5.1161 20.1404 6.38102 20.6625C7.64593 21.1851 9.02033 21.4462 10.5051 21.4462C11.9898 21.4462 13.3646 21.1847 14.6295 20.6625C15.5782 20.2709 16.4343 19.7707 17.1972 19.1627C17.4516 18.9597 17.6954 18.7454 17.9291 18.5184C18.8643 17.611 19.5928 16.5486 20.1145 15.3287C20.2176 15.0887 20.3065 14.8441 20.3869 14.5969C20.3915 14.5839 20.3924 14.5708 20.3958 14.5573C20.3966 14.5586 20.397 14.5603 20.3983 14.562C20.4273 14.4681 20.5035 14.2398 20.5305 14.1447C20.7739 13.2785 20.8989 12.3774 20.8989 11.4384V11.3832C20.8989 10.4623 20.7789 9.5785 20.5444 8.73171" fill="white"/>
<path d="M34.3832 7.50637C33.8606 6.29619 33.141 5.24265 32.2248 4.34407C31.3081 3.44676 30.2175 2.73598 28.953 2.21342C27.6881 1.69128 26.3132 1.42979 24.8285 1.42979C23.3438 1.42979 21.9686 1.69086 20.7041 2.213C19.4391 2.73556 18.3393 3.45055 17.4045 4.35797C16.4697 5.26539 15.7412 6.32904 15.2191 7.54764C15.1336 7.7468 15.0591 7.9485 14.9888 8.15188H20.9327C21.0287 8.01882 21.1285 7.88871 21.2405 7.76786C21.6709 7.30004 22.1842 6.92907 22.78 6.65411C23.3754 6.37914 24.0398 6.24187 24.7734 6.24187C25.5069 6.24187 26.1755 6.3842 26.7806 6.66758C27.3857 6.95223 27.9083 7.33246 28.3479 7.80912C28.7879 8.28578 29.1265 8.83571 29.3652 9.45891C29.6035 10.0821 29.7223 10.7419 29.7223 11.4388V11.4936C29.7223 12.1904 29.6031 12.8507 29.3652 13.4735C29.1265 14.0971 28.7963 14.6424 28.3753 15.1094C27.9538 15.5772 27.4405 15.9477 26.8358 16.2227C26.2307 16.4981 25.5616 16.6353 24.8285 16.6353C24.0954 16.6353 23.4263 16.4934 22.8212 16.2092C22.2166 15.9254 21.6982 15.5452 21.2679 15.0681C21.1512 14.9397 21.0439 14.8049 20.942 14.6655C20.8611 14.9081 20.7744 15.1481 20.6733 15.3839C20.1204 16.6741 19.3495 17.7988 18.3599 18.7593C18.2433 18.8725 18.1237 18.9824 18.0016 19.0902C18.778 19.729 19.6594 20.2545 20.6493 20.6629C21.9142 21.1855 23.2891 21.4466 24.7738 21.4466C26.2585 21.4466 27.6329 21.1851 28.8982 20.6629C30.1632 20.1404 31.263 19.4258 32.1978 18.5188C33.1326 17.6114 33.8611 16.5482 34.3836 15.3292C34.9062 14.1101 35.1668 12.8136 35.1668 11.4388V11.3837C35.1668 10.0088 34.9058 8.71655 34.3836 7.50679" fill="white"/>
</g>
<path d="M53.082 6.53381H47.7944V5.40334H61.4511V6.53381H56.1635V18.1667H53.082V6.53381ZM66.9417 18.349C65.799 18.349 64.8084 18.1606 63.9696 17.7838C63.1309 17.4069 62.4866 16.8721 62.0369 16.1792C61.5871 15.4742 61.3623 14.6476 61.3623 13.6995C61.3623 12.7514 61.5871 11.9309 62.0369 11.238C62.4866 10.533 63.1309 9.99206 63.9696 9.61524C64.8084 9.23842 65.799 9.05001 66.9417 9.05001C68.0843 9.05001 69.075 9.23842 69.9137 9.61524C70.7524 9.99206 71.3967 10.533 71.8464 11.238C72.2962 11.9309 72.5211 12.7514 72.5211 13.6995C72.5211 14.6476 72.2962 15.4742 71.8464 16.1792C71.3967 16.8721 70.7524 17.4069 69.9137 17.7838C69.075 18.1606 68.0843 18.349 66.9417 18.349ZM66.9417 17.4009C67.829 17.4009 68.528 17.0727 69.0385 16.4163C69.549 15.7477 69.8043 14.8421 69.8043 13.6995C69.8043 12.5569 69.549 11.6574 69.0385 11.001C68.528 10.3324 67.829 9.99814 66.9417 9.99814C66.0543 9.99814 65.3554 10.3324 64.8448 11.001C64.3343 11.6574 64.079 12.5569 64.079 13.6995C64.079 14.8421 64.3343 15.7477 64.8448 16.4163C65.3554 17.0727 66.0543 17.4009 66.9417 17.4009ZM81.8384 18.1667L78.3376 13.7907L77.3348 14.6476V18.1667H74.6363V5.71331H77.3348V12.6967L81.492 9.23234H83.6435L79.9604 12.3867L84.5552 18.1667H81.8384ZM90.5719 17.4009C91.3985 17.4009 92.0306 17.2185 92.4682 16.8539C92.9179 16.4892 93.2097 15.9422 93.3434 15.2129H95.349C95.1424 16.2218 94.5832 16.9997 93.6716 17.5467C92.7721 18.0816 91.6355 18.349 90.2619 18.349C89.1679 18.349 88.2198 18.1667 87.4175 17.802C86.6153 17.4252 85.9953 16.8903 85.5577 16.1975C85.1323 15.5046 84.9196 14.6841 84.9196 13.736C84.9196 12.7757 85.1323 11.943 85.5577 11.238C85.9953 10.533 86.6153 9.99206 87.4175 9.61524C88.2198 9.23842 89.1679 9.05001 90.2619 9.05001C91.9516 9.05001 93.2401 9.45114 94.1274 10.2534C95.0148 11.0557 95.4584 12.2226 95.4584 13.7542H87.6181V13.8636C87.6181 16.2218 88.6027 17.4009 90.5719 17.4009ZM90.3531 9.99814C89.5995 9.99814 88.9978 10.2412 88.548 10.7275C88.0983 11.2137 87.8126 11.9066 87.691 12.8061H92.8511C92.7538 11.8823 92.4925 11.1833 92.067 10.7092C91.6416 10.2352 91.0703 9.99814 90.3531 9.99814ZM97.5712 9.23234H100.27V10.7092C100.549 10.1987 100.975 9.79757 101.546 9.50584C102.13 9.20195 102.78 9.05001 103.497 9.05001C104.688 9.05001 105.624 9.35389 106.305 9.96167C106.998 10.5695 107.344 11.4082 107.344 12.4779V18.1667H104.646V12.3138C104.646 10.77 104.002 9.99814 102.713 9.99814C101.959 9.99814 101.364 10.2777 100.926 10.8369C100.489 11.396 100.27 12.1497 100.27 13.0978V18.1667H97.5712V9.23234Z" fill="white"/>
</g>
<defs>
<clipPath id="clip0_2003_41">
<rect width="106" height="22.08" fill="white" transform="translate(0 0.460945)"/>
</clipPath>
<clipPath id="clip1_2003_41">
<rect width="35" height="20.0168" fill="white" transform="translate(0.166748 1.42978)"/>
</clipPath>
</defs>
</svg>
