<svg width="43" height="43" viewBox="0 0 43 43" fill="none" xmlns="http://www.w3.org/2000/svg">
<path d="M16.449 4.38867C16.7958 4.38867 17.1284 4.52644 17.3737 4.77168C17.6189 5.01692 17.7567 5.34953 17.7567 5.69635V10.0553C17.7567 10.4021 17.6189 10.7347 17.3737 10.9799C17.1284 11.2252 16.7958 11.3629 16.449 11.3629C16.1022 11.3629 15.7696 11.2252 15.5244 10.9799C15.2791 10.7347 15.1413 10.4021 15.1413 10.0553V5.69635C15.1413 5.34953 15.2791 5.01692 15.5244 4.77168C15.7696 4.52644 16.1022 4.38867 16.449 4.38867ZM8.11476 7.8235C8.35995 7.57862 8.69232 7.44107 9.03885 7.44107C9.38539 7.44107 9.71775 7.57862 9.96294 7.8235L13.0142 10.8747C13.1427 10.9945 13.2457 11.1388 13.3172 11.2992C13.3887 11.4596 13.4271 11.6328 13.4302 11.8084C13.4333 11.984 13.401 12.1584 13.3352 12.3212C13.2694 12.484 13.1716 12.6319 13.0474 12.7561C12.9232 12.8803 12.7753 12.9782 12.6125 13.044C12.4496 13.1097 12.2752 13.142 12.0996 13.1389C11.9241 13.1358 11.7509 13.0974 11.5905 13.0259C11.4301 12.9545 11.2857 12.8514 11.166 12.7229L8.11476 9.67168C7.86988 9.42649 7.73233 9.09413 7.73233 8.74759C7.73233 8.40106 7.86988 8.06869 8.11476 7.8235ZM24.7833 7.8235C25.0282 8.06869 25.1657 8.40106 25.1657 8.74759C25.1657 9.09413 25.0282 9.42649 24.7833 9.67168L21.732 12.7229C21.6123 12.8514 21.4679 12.9545 21.3075 13.0259C21.1471 13.0974 20.974 13.1358 20.7984 13.1389C20.6228 13.142 20.4484 13.1097 20.2856 13.044C20.1227 12.9782 19.9748 12.8803 19.8507 12.7561C19.7265 12.6319 19.6286 12.484 19.5628 12.3212C19.497 12.1584 19.4647 11.984 19.4678 11.8084C19.4709 11.6328 19.5094 11.4596 19.5808 11.2992C19.6523 11.1388 19.7554 10.9945 19.8838 10.8747L22.9351 7.8235C23.1803 7.57862 23.5126 7.44107 23.8592 7.44107C24.2057 7.44107 24.5381 7.57862 24.7833 7.8235ZM4.67993 16.1578C4.67993 15.8109 4.8177 15.4783 5.06294 15.2331C5.30818 14.9879 5.64079 14.8501 5.98761 14.8501H10.3465C10.6933 14.8501 11.026 14.9879 11.2712 15.2331C11.5164 15.4783 11.6542 15.8109 11.6542 16.1578C11.6542 16.5046 11.5164 16.8372 11.2712 17.0824C11.026 17.3277 10.6933 17.4654 10.3465 17.4654H5.98761C5.64079 17.4654 5.30818 17.3277 5.06294 17.0824C4.8177 16.8372 4.67993 16.5046 4.67993 16.1578ZM15.1413 17.4428C15.1413 15.4778 17.4463 14.4177 18.9371 15.6975L33.6894 28.3418C35.2761 29.7018 34.3729 32.3015 32.2858 32.3869L25.5905 32.6537C24.8705 32.6816 24.1939 33.0024 23.7127 33.5376L19.155 38.6324C17.748 40.2068 15.1413 39.2095 15.1413 37.098V17.4428Z" fill="#FF414D"/>
</svg>
