<svg width="35" height="36" viewBox="0 0 35 36" fill="none" xmlns="http://www.w3.org/2000/svg">
<g clip-path="url(#clip0_2003_223)">
<path d="M17.5 35.6669C27.165 35.6669 35 27.8319 35 18.1669C35 8.50189 27.165 0.66687 17.5 0.66687C7.83502 0.66687 0 8.50189 0 18.1669C0 27.8319 7.83502 35.6669 17.5 35.6669Z" fill="#26A17B"/>
<path fill-rule="evenodd" clip-rule="evenodd" d="M19.6022 19.6799V19.6777C19.4819 19.6864 18.8617 19.7236 17.4781 19.7236C16.3734 19.7236 15.5958 19.6908 15.3223 19.6777V19.681C11.0698 19.4939 7.89578 18.7535 7.89578 17.8675C7.89578 16.9827 11.0698 16.2422 15.3223 16.0519V18.9438C15.6002 18.9635 16.3964 19.0105 17.4967 19.0105C18.8169 19.0105 19.4786 18.9558 19.6022 18.9449V16.0541C23.8459 16.2433 27.0123 16.9838 27.0123 17.8675C27.0123 18.7535 23.8459 19.4917 19.6022 19.6799ZM19.6022 15.7533V13.1655H25.5237V9.21924H9.40078V13.1655H15.3223V15.7522C10.5098 15.9731 6.89062 16.9269 6.89062 18.0688C6.89062 19.2106 10.5098 20.1633 15.3223 20.3853V28.6781H19.6022V20.3831C24.407 20.1622 28.0175 19.2095 28.0175 18.0688C28.0175 16.928 24.407 15.9753 19.6022 15.7533Z" fill="white"/>
</g>
<defs>
<clipPath id="clip0_2003_223">
<rect width="35" height="35" fill="white" transform="translate(0 0.66687)"/>
</clipPath>
</defs>
</svg>
