<svg width="27" height="26" viewBox="0 0 27 26" fill="none" xmlns="http://www.w3.org/2000/svg">
<circle cx="13.5832" cy="12.9167" r="12.2917" stroke="white" stroke-width="1.25"/>
<path d="M19.3474 9.62263C19.6151 9.48217 20.2563 9.06488 20.5585 8.16922C20.5585 8.16922 19.8301 8.7042 18.8389 8.76724L18.8209 8.77735C18.5611 8.48861 18.2449 8.2581 17.8925 8.10056C17.54 7.94302 17.1591 7.86191 16.774 7.86243C15.2404 7.86243 13.9973 9.12538 13.9973 10.6833C13.9973 10.9196 14.0263 11.1492 14.0805 11.3686L14.067 11.3482C14.067 11.3482 11.0929 11.5213 8.289 8.40539C8.289 8.40539 7.04936 10.5455 9.17186 12.1822C8.70707 12.2608 7.88626 11.8359 7.88626 11.8359C7.88626 11.8359 7.9326 14.086 10.1323 14.6369C9.77608 14.7315 9.10982 14.7626 8.89303 14.6684C8.89303 14.6684 9.21821 16.3835 11.4646 16.6827C10.8914 17.0132 9.82261 18.0202 7.40576 17.8313C7.40576 17.8313 9.14122 19.2788 12.3634 19.0746C15.5855 18.8703 17.9248 16.6667 18.8697 14.3379C19.8146 12.0091 19.5517 10.6831 19.5517 10.6831C19.5517 10.6831 20.3413 10.2621 20.884 9.25514C20.6333 9.3314 19.7036 9.56213 19.3575 9.64753C19.354 9.63928 19.3506 9.63098 19.3474 9.62263Z" fill="white"/>
</svg>
